/* XPM */
static char *reduprun_[] = {
/* columns rows colors chars-per-pixel */
"16 32 13 1",
"  c #000000",
". c #682828",
"X c #383878",
"o c #784040",
"O c #C03838",
"+ c #A87840",
"@ c #F86848",
"# c #B89838",
"$ c #D89070",
"% c #F8D858",
"& c #FF00FF",
"* c #70A0C0",
"= c #F8C090",
/* pixels */
"&&&&&&&&&&&&&&&&",
"&&&&&&&&&&&&&&&&",
"&&&&&&&&&&&&&&&&",
"&&&&&&&&&&&&&&&&",
"&&&&&&&&&&&&&&&&",
"&&&&&&&&&&&&&&&&",
"&&&&&&&&&&&&&&&&",
"&&&&&&&&&&&&&&&&",
"&&&&&&&&&&&&&&&&",
"&&&&&&&&&&&&&&&&",
"&&&&&&&&&&&&&&&&",
"&&&&&&&&&&&&&&&&",
"&&&&&&&&&&&&&&&&",
"&&&&........&&&&",
"&&&.O@@@@@@O.&&&",
"&&&.@@@@@@@@.&&&",
"&&.O@@@@@@@@O.&&",
"&&.O@@@@@@@@O.&&",
"&& OO@@@@@@OO &&",
"& +.OOOOOOOO.+ &",
"& $o.OOOOOO.o$ &",
"&& $o..  ..o$ &&",
"&&o .o+oo+o. o&&",
"&o=X  oooo  X=o&",
"&o$$X#    #X$$o&",
"&& X o%%%%o X &&",
"&&& O#%%%%#O &&&",
"&&& *#%oo%#* &&&",
"&&&&  ####  &&&&",
"&&&& XX  XX &&&&",
"&&&&&  &&  &&&&&",
"&&&&&&&&&&&&&&&&"
};
