/* XPM */
static char *redup_[] = {
/* columns rows colors chars-per-pixel */
"16 32 13 1",
"  c #000000",
". c #682828",
"X c #383878",
"o c #784040",
"O c #C03838",
"+ c #A87840",
"@ c #F86848",
"# c #B89838",
"$ c #D89070",
"% c #F8D858",
"& c #FF00FF",
"* c #70A0C0",
"= c #F8C090",
/* pixels */
"&&&&&&&&&&&&&&&&",
"&&&&&&&&&&&&&&&&",
"&&&&&&&&&&&&&&&&",
"&&&&&&&&&&&&&&&&",
"&&&&&&&&&&&&&&&&",
"&&&&&&&&&&&&&&&&",
"&&&&&&&&&&&&&&&&",
"&&&&&&&&&&&&&&&&",
"&&&&&&&&&&&&&&&&",
"&&&&&&&&&&&&&&&&",
"&&&&&&&&&&&&&&&&",
"&&&&&&&&&&&&&&&&",
"&&&&........&&&&",
"&&&.O@@@@@@O.&&&",
"&&&.@@@@@@@@.&&&",
"&&.O@@@@@@@@O.&&",
"&&.OO@@@@@@OO.&&",
"&& OOOOOOOOOO &&",
"&& .OOOOOOOO. &&",
"& +o.OO  OO.o+ &",
"& $ o......o $ &",
"&&  oo+oo+oo  &&",
"&&&   oooo   &&&",
"&& Xo#    #o  &&",
"&o=XO#OOOO#OX=o&",
"&o$oOo%%%%oOo$o&",
"&&o  #%%%%#  o&&",
"&&&X*######*X&&&",
"&&&  *#oo#*  &&&",
"&&& XX    XX &&&",
"&&&&  &&&&  &&&&",
"&&&&&&&&&&&&&&&&"
};
