/* XPM */
static char *red_down_2[] = {
/* columns rows colors chars-per-pixel */
"16 32 15 1 ",
"  c black",
". c #550012",
"X c #6D3636",
"o c #0B2745",
"O c #363645",
"+ c #2E2E6D",
"@ c #B90027",
"# c #DC4555",
"$ c #D48665",
"% c #7E7E86",
"& c #4D7EB1",
"* c magenta",
"= c #8E8EB1",
"- c #A8A8CB",
"; c gray100",
/* pixels */
"****************",
"****************",
"****************",
"****************",
"****************",
"****************",
"****************",
"****........****",
"***.@######@.***",
"***.########.***",
"**.@########@.**",
"**.@@######@@.**",
"** @@@@@@@@@@ **",
"** .@@@@@@@@. **",
"* $O.@@  @@.O$ *",
"* $ O......O $ *",
"*X  OO%OO%OO  **",
"*X$-  OOOO  X***",
"*X$-XX    X-  **",
"** -@#@;;@#X- **",
"***X@#;##;#@$$ *",
"*** @@#;;#@@$$ *",
"*** +&@@@@&+  **",
"*** +o&oo&o  ***",
"**** ==   ******",
"*****  *********",
"****************",
"****************",
"****************",
"****************",
"****************",
"****************"
};
