/* XPM */
static char *red_up_3[] = {
/* columns rows colors chars-per-pixel */
"16 32 16 1 ",
"  c black",
". c #550012",
"X c #5D2020",
"o c #6D3636",
"O c #0B2745",
"+ c #363645",
"@ c #B90027",
"# c #DC4555",
"$ c #D48665",
"% c #7E7E86",
"& c #4D7EB1",
"* c magenta",
"= c #F7B986",
"- c #A8A8CB",
"; c #C2C2D4",
": c #E5E5F7",
/* pixels */
"****************",
"****************",
"****************",
"****************",
"****************",
"****************",
"****************",
"****........****",
"***.@@####@@.***",
"***.@#;::;#@.***",
"**.@@......@@.**",
"** @ @@ @@@ @ **",
"**..@ +++  +..**",
"* $@ +% +++ @$ *",
"* $ +%+$$+%+ $ *",
"** o$+$$$$+$o **",
"** $$= == =$$ o*",
"***o$$.==.$$o-$o",
"***  o$$$$o  -$o",
"** --@    X@-  *",
"**o==o@--@@@o***",
"**o$$o#::#@  ***",
"***oo     O& ***",
"******  O&& ****",
"******** -- ****",
"*********  *****",
"****************",
"****************",
"****************",
"****************",
"****************",
"****************"
};
