/* XPM */
static char *red_left_2[] = {
/* columns rows colors chars-per-pixel */
"16 32 16 1 ",
"  c black",
". c #550012",
"X c #5D2020",
"o c #6D3636",
"O c #363645",
"+ c #B90027",
"@ c #DC4555",
"# c #D48665",
"$ c #7E7E86",
"% c #4D7EB1",
"& c magenta",
"* c #6597B9",
"= c #8E8EB1",
"- c #F7B986",
"; c #A8A8CB",
": c #E5E5F7",
/* pixels */
"&&&&&&&&&&&&&&&&",
"&&&&&&&&&&&&&&&&",
"&&&&&&&&&&&&&&&&",
"&&&&&&&&&&&&&&&&",
"&&&&&&&&&&&&&&&&",
"&&&&&&&&&&&&&&&&",
"&&&&&&&&&&&&&&&&",
"&&&&&........&&&",
"&&&&.+@@@@@@+.&&",
"&&&&.@@@@@@@@.&&",
"&&..::@@@@@@@+.&",
"&&. .+:@@@@@++.&",
"&&O  .++++++++ &",
"&O $ + ++++++. &",
"&O$O  +.+++..O &",
"&&OOO ..... OO &",
"&& o## ## -#O &&",
"&&&&o-.-##-# &&&",
"&&&&&o####oo&&&&",
"&&&& oo; ++O&&&&",
"&&& ---;;o++O&&&",
"&&& ###;  ++O&&&",
"&&&&    ++X &&&&",
"&&&& oo **% &&&&",
"&&&&&    === &&&",
"&&&&&&&&&   &&&&",
"&&&&&&&&&&&&&&&&",
"&&&&&&&&&&&&&&&&",
"&&&&&&&&&&&&&&&&",
"&&&&&&&&&&&&&&&&",
"&&&&&&&&&&&&&&&&",
"&&&&&&&&&&&&&&&&"
};
