/* XPM */
static char *reddownrun_[] = {
/* columns rows colors chars-per-pixel */
"16 32 13 1",
"  c #000000",
". c #682828",
"X c #383878",
"o c #784040",
"O c #C03838",
"+ c #A87840",
"@ c #F86848",
"# c #D89070",
"$ c #FF00FF",
"% c #70A0C0",
"& c #F8C090",
"* c #B0B0D0",
"= c #E8E8F8",
/* pixels */
"$$$$$$$$$$$$$$$$",
"$$$$$$$$$$$$$$$$",
"$$$$$$$$$$$$$$$$",
"$$$$$$$$$$$$$$$$",
"$$$$$$$$$$$$$$$$",
"$$$$$$$$$$$$$$$$",
"$$$$$$$$$$$$$$$$",
"$$$$$$$$$$$$$$$$",
"$$$$$$$$$$$$$$$$",
"$$$$$$$$$$$$$$$$",
"$$$$$$$$$$$$$$$$",
"$$$$$$$$$$$$$$$$",
"$$$$$$$$$$$$$$$$",
"$$$$$$$$$$$$$$$$",
"$$$$........$$$$",
"$$$.O@@@@@@O.$$$",
"$$$.@@@@@@@@.$$$",
"$..O@@@@@@@@O.$$",
".+ O@@@@@@@@O $$",
".+ OO@@@@@@OO $$",
"$ +.OOO**OOO.+ $",
"$ # *O*OO*O* # $",
"$$ oX======Xo $$",
"$$ ##XXXXXX## $$",
"$$$ #& && &# $$$",
"$$$  o####o  $$$",
"$$$ O     XX $$$",
"$$$ XO**..+ $$$$",
"$$$$ X .&&  $$$$",
"$$$$  %.## $$$$$",
"$$$$$ **  $$$$$$",
"$$$$$$  $$$$$$$$"
};
