/* XPM */
static char *redrightrun_[] = {
/* columns rows colors chars-per-pixel */
"16 32 15 1",
"  c #000000",
". c #682828",
"X c #383878",
"o c #784040",
"O c #C03838",
"+ c #A87840",
"@ c #F86848",
"# c #B89838",
"$ c #D89070",
"% c #F8D858",
"& c #FF00FF",
"* c #70A0C0",
"= c #F8C090",
"- c #B0B0D0",
"; c #E8E8F8",
/* pixels */
"&&&&&&&&&&&&&&&&",
"&&&&&&&&&&&&&&&&",
"&&&&&&&&&&&&&&&&",
"&&&&&&&&&&&&&&&&",
"&&&&&&&&&&&&&&&&",
"&&&&&&&&&&&&&&&&",
"&&&&&&&&&&&&&&&&",
"&&&&&&&&&&&&&&&&",
"&&&&&&&&&&&&&&&&",
"&&&&&&&&&&&&&&&&",
"&&&&&&&&&&&&&&&&",
"&&&&&&&&&&&&&&&&",
"&&&&&&&&&&&&&&&&",
"&&&&&&&&&&&&&&&&",
"&&&&........&&&&",
"&&&.O@@@@@@O.&&&",
"&&&.@@@@@@@@O.&&",
"&&.O@@@@@@@@;..&",
"&&.OO@@@@@@O;.; ",
"&&.OOOOOOOOO-O; ",
"&& .OOOOOOOOO-; ",
"&& o..OOOOO--- &",
"&. ooo......Xo&&",
".++ o$=o$$ $$o&&",
".+ # $=$$=o=o&&&",
"& %%#oo$$$$..&&&",
"& o%##oO X ==.&&",
"& #o..OOXX $$.&&",
"&& ## .O.    &&&",
"&& .. **   &&&&&",
"&&& OX  &&&&&&&&",
"&&&&  &&&&&&&&&&"
};
