/* XPM */
static char *arena[] = {
/* columns rows colors chars-per-pixel */
"112 112 27 1",
"  c #0F142A",
". c #384844",
"X c #51504F",
"o c #505050",
"O c #49625D",
"+ c #597E7A",
"@ c #97492F",
"# c #B45738",
"$ c #CC785B",
"% c #FF00FF",
"& c #3698B8",
"* c #778A95",
"= c #759994",
"- c #4FCA8F",
"; c #52A8C3",
": c #7DBED2",
"> c #959595",
", c #94A3AC",
"< c #9DB8B4",
"1 c #D99984",
"2 c #B0C8C8",
"3 c #C9C9C9",
"4 c #CDDCDC",
"5 c #DBDBDB",
"6 c #E1E1E1",
"7 c #F0F0F0",
"8 c #F6F6F6",
/* pixels */
"%%%%%%%%%%%%%%%%%%%%%%%%%%%%%%%%%%%%%%%%%%%%%%%%%%%%%%%%%%%%%%%%%%%%%%%%%%%%%%%%%%%%%%%%%%%%%%%%%%%%%%%%%%%%%%%%",
"%%%%%%%%%%%%%%%%%%%%%%%%%%%%%%%%%%%%%%%%%%%%%%%%%%%%%%%%%%%%%%%%%%%%%%%%%%%%%%%%%%%%%%%%%%%%%%%%---%----------%%",
"%%%%%%%%%%%%%%%%%%%%%%%%%%%%%%%%................................%%%%%%%%%%%%%%%%%%%%%%%%%%%%%%%%>>>->>>>>>>>>--%",
"%%%%%%%%%%%%%%%%%%%%%%%%%%%%%%..<<<<<<<<<<<<<<<<<<<<<<<<<<<<<<<<..%%%%%%%%%%%%%%%%%%%%%%%%%%%%%%667>66666677>>-%",
"%%%%%%%%%%%%%%%%%%%%%%%%%%%%..<<================================<<..%%%%%%%%%%%%%%%%%%%%%%%%%%%%3376633333766>-%",
"%%%%%%%%%%%%%%%%%%%%%%%%%%..<<==++++++++++++++++++++++++++++++++==<<..%%%%%%%%%%%%%%%%%%%%%%%%%%7366636663666>-%",
"%%%%%%%%%%%%%%%%%%%%%%%%..<<==++=====+++=====+++=====+++=====+++++==<<..%%%%%%%%%%%%%%%%%%%%%%%%7733366666336>-%",
"%%%%%%%%%%%%%%%%%%%%%%..<<==++===+++=====+++=====+++=====+++=====+++==<<..%%%%%%%%%%%%%%%%%%%%%%7773666666636>-%",
"%%%%%%%%%%%%%%%%%%%%..<<==++=====+++=====+++=====+++=====+++=====+++++==<<..%%%%%%%%%%%%%%%%%%%%7773666666636>-%",
"%%%%%%%%%%%%%%%%%%..<<==++============================================++==<<..%%%%%%%%%%%%%%%%%%7773666666636>-%",
"%%%%%%%%%%%%%%%%..<<==++================================================++==<<..%%%%%%%%%%%%%%%%7733366666336>-%",
"%%%%%%%%%%%%%%..<<==++===+++=====+++=====+++=====+++=====+++=====+++=====+++==<<..%%%%%%%%%%%%%%7377636663776>-%",
"%%%%%%%%%%%%..<<==++=====+++=====+++=====+++=====+++=====+++=====+++=====+++++==<<..%%%%%%%%%%%%337>63333376>-%%",
"%%%%%%%%%%..<<==++===+++=====+++=====+++=====+++=====+++=====+++=====+++=====+++==<<..%%%%%%%%%%6366637773666>-%",
"%%%%%%%%..<<==++=====+++=====+++=====+++=====+++=====+++=====+++=====+++=====+++++==<<..%%%%%%%%6633377777336>-%",
"%%%%%%..<<==++===+++=====+++=====+++=====++XXXXXX+++=====+++=====+++=====+++=====+++==<<..%%%%%%6663777777736>-%",
"%%%%..<<==++=====+++=====+++=====+++===XXXX,,,,,,XXXX====+++=====+++=====+++=====+++++==<<..%%%%->63777777736666",
"%%..<<==++===========================XX,,,,******,,,,XX===============================++==<<..%%->63777777736666",
"..<<==++===========================XX,,****XXXXXX****,,XX===============================++==<<..->63377777333666",
".<<=++===+++=====+++=====+++=====XX,,**XXXX&::&&&XXXX**,,XX+=====+++=====+++=====+++=====+++=<=.->77637773776366",
".<=+=====+++=====+++=====+++====XX,,*XX&&&&::&&&&:&&&XX*,,XX=====+++=====+++=====+++=====++++<=.%->66333337>6333",
".<=+=+++=====+++=====+++=====++XX,,*X&&&&&::;;;;:&&&&&:X*,,XX+++=====+++=====+++=====+++====+<=.->66636663666377",
".<=+=+++=====+++=====+++=====++X,,*X&&&&;::;;;;:;;;;&:::X*,,X+++=====+++=====+++=====+++====+<=.->63366666333777",
".<=+=====+++=====+++=====+++==X,,*X&&&;;::;;;;:;;;;;:::&&X*,,X===+++=====+++=====+++=====++++<=.->63666666637777",
".<=+=====+++=====+++=====+++=X,**X&&&;;::;;;;:;;;;;:::;&&&X**,X==+++=====+++=====+++=====++++<=.->63666666637777",
".<=+=========================X,*X&&&;;::;;;;:;;;;;:::;;;&&:X*,X=============================+<=.->63666666637777",
".<=+=========================X,*X&&;;::;;;;:;XX;;:::;;;;;:&X*,X=============================+<=.->63366666333777",
".<=+=====+++=====+++=====+++X,*X&&;;::;;;;;XX,,XX::;;;;;:;&&X,*X=+++=====+++=====+++=====++++<=.->77636663776377",
".<=+=====+++=====+++=====+++X,*XXXXXXXXXXXXX,,,,XXXXXXXXXXXXX,*X=+++=====+++=====+++=====++++<=.%->66333337>6333",
".<=+=+++=====+++=====+++====X,*,,,,,,,,,,,,,,**,,,,,,,,,,,,,,,*X=====+++=====+++=====+++====+<=.->66637773666366",
".<=+=+++=====+++=====+++====X,*******************************,*X=====+++=====+++=====+++====+<=.->63377777333666",
".<=+=====+++=====+++=====+++X,*XXXXXXXXXXXXX****XXXXXXXXXXXXX,*X=+++=====+++=====+++=====++++<=.->63777777736666",
".<=+=====+++=====+++=====+++X,*X&&::&&&&&&:XX**XX&:::&&&&:&&X,*X=+++=====+++=====+++=====++++<=.6663777777736666",
".<=+=========================X*,X::&&&&&&::&&XX&&:::&&&&:&&X,*X=============================+<=.6663777777736666",
".<=+=========================X*,X:;;;;;;::&&&&&&:::;;;;:;;;X,*X=============================+<=.6633377777333666",
".<=+=====+++=====+++=====+++=X**,X;;;;;::;;;&&&:::;;;;:;;;X,**X==+++=====+++=====+++=====++++<=.6377637773776366",
".<=+=====+++=====+++=====+++==X*,,X;;;::;;;;;;:::;;;;:;;;X,,*X===+++=====+++=====+++=====++++<=.337>6333337>6333",
".<=+=+++=====+++=====+++=====++X*,,X;::;;;;;;:::;;;;:;;;X,,*X+++=====+++=====+++=====+++====+<=.7366636663666377",
".<=+=+++=====+++=====+++=====++XX*,,X:;;;;;;:::;;;;:;;;X,,*XX+++=====+++=====+++=====+++====+<=.7733366666333777",
".<=++====+++=====+++=====+++====XX*,,XX;;;;:::;;;;:;;XX,,*XX=====+++=====+++=====+++=====++++<=.7773666666637777",
".=<<<++==+++=====+++=====+++=====XX**,,XXXX::;;;;XXXX,,**XX+=====+++=====+++=====+++=====++<<<=.7773666666637777",
".+==<<<++==========================XX**,,,,XXXXXX,,,,**XX==============================++<<<==..7773666666637777",
".=++==<<<++==========================XX****,,,,,,****XX==============================++<<<==..O.7733366666333777",
".===++==<<<++====+++=====+++=====+++===XXXX******XXXX====+++=====+++=====+++=====++++<<<==..OOO.7377636663776377",
".=====++==<<<++==+++=====+++=====+++=====++XXXXXX+++=====+++=====+++=====+++=====++<<<==..OOOOO.337>6333337>6333",
"..======++==<<<++====+++=====+++=====+++=====+++=====+++=====+++=====+++=====++++<<<==..OOOOOO..6366637773666366",
"X ..======++==<<<++==+++=====+++=====+++=====+++=====+++=====+++=====+++=====++<<<==..OOOOOO.. X6633377777333666",
"X 22..======++==<<<++====+++=====+++=====+++=====+++=====+++=====+++=====++++<<<==..OOOOOO..,, X6663777777736666",
"X 4422..======++==<<<++==+++=====+++=====+++=====+++=====+++=====+++=====++<<<==..OOOOOO..,,22 X6663777777736>-%",
"X 444422..======++==<<<++==============================================++<<<==..OOOOOO..,,2222 X6663777777736>-%",
"X 42244422..======++==<<<++==========================================++<<<==..OOOOOO..,,222,,2 X6633377777336>-%",
"X 4442244422..======++==<<<++====+++=====+++=====+++=====+++=====++++<<<==..OOOOOO..,,222,,222 X6377637773776>-%",
"XX #4442244422..======++==<<<++==+++=====+++=====+++=====+++=====++<<<==..OOOOOO..,,222,,222@ XX337>63333376>-%%",
"XX 1#X4442244422..======++==<<<++++++++++++++++++++++++++++++++++<<<==..OOOOOO..,,222,,222X@# XX7366636663666>-%",
"XX 1#8XX4442244422..======++==<<<<<<<<<<<<<<<<<<<<<<<<<<<<<<<<<<<<==..OOOOOO..,,222,,222XX4@# XX7733366666336>-%",
"XX 1#888XX4442244422..======++====================================..OOOOOO..,,222,,222XX444@# XX7773666666636>-%",
"XX 1#88888XX4442244422..======OOOOOOOOOOOOOOOOOOOOOOOOOOOOOOOOOOOOOOOOOO..,,222,,222XX44444@# XX7773666666636>-%",
"XX 1#8888888XX4442244422..====++++++++++++++++++++++++++++++++++++OOOO..,,222,,222XX4444444@# XX7773666666636>-%",
"XX 1#888888888XX4442244422..==++++++++++++++++++++++++++++++++++++OO..,,222,,222XX444444444@# XX7733366666336>-%",
"XX 1#88884  8888XX4442244422..++++++++++++++++++++++++++++++++++++..,,222,,222XX4444  ,4444@# XX7377636663776>-%",
"XX 1#88884 :  8888XX4442244422...................................@,,222,,222XX4444  : ,4444@# XX337>63333376>-%%",
"XX 1#88884 ::;  8888XX44422442#$$$#,,,,,,,,,,,,,,,,,,,,,,,,,,#$$$@,22,,222XX4444  ;:: ,4444@# XX6366637773666>-%",
"XX 1#88884 :;;;;  8888XX444242#$1$#555                    555#$1$@,2,222XX4444  ;;::& ,4444@# XX6633377777336>-%",
"XX 1#88884 ;;;;;;;  8888XX4442#11$#55 88888888888888888888 55#11$@,222XX4444  ;;;;::& ,4444@# XX6663777777736>-%",
"XX 1#88484 ;;;;;;;::  8888XX42#11$#55 88888888888888888888 55#11$@,2XX444,  :;;;;::;& ,4,44@# XX->63777777736666",
"XX 1#84484 ;;;;:::::: 488888###11$#55 88oooo8o888o8oo8oo88 55#11$@@@44444, ::;;;::;;& ,4,,4@# XX->63777777736666",
"XX 1#84484 &;::::::;& 488888#1#11$#55 8oo,,,8o888o8o,o,o88 55#11$@#@44444, :;;;::;;;& ,4,,4@# XX->63377777333666",
"XX 1#84484 :::::;;;;& 488888#1#11$#55 8o,8888,o8o,8o8o8o88 55#11$@#@44444, ;;;;::;&&& ,4,,4@# XX->77637773776366",
"XX 1#84484  ::&&;;;;& 488888#1#11$#55 8 5ooo88   88 8 8 88 55#11$@#@44444, ;;;::&&&&  ,4,,4@# XX%->66333337>6333",
"XX 1#8848444  &&&&;;& 488488#1#11$#55 8  ,, 88, ,88 8,8 88 55#11$@#@44,44, ;;::&&&  ,,,4,44@# XX->66636663666377",
"XX 1#88884  44  &&&&& 484488#1#11$#55 8,    888 888 888 88 55#11$@#@44,,4, ;:::&  ,,  ,4444@# XX->63366666333777",
"XX 1#88884 :  44  &&& 484488#1#11$#55 88,,,,888,888,888,88 55#11$@#@44,,4, :::  ,,  : ,4444@# XX->63666666637777",
"XX 1#88884 ::;  44  & 484488#1#$1$#55 88888888888888888888 55#11$@#@44,,4, :  ,,  ;:: ,4444@# XX->63666666637777",
"XX 1#88884 :;;;;  44  484488#1#$$$#555                    555#$1$@#@44,,4,  ,,  ;;::& ,4444@# XX->63666666637777",
"XX 1#88884 ;;;;;;;  44488488#1#$$$#55555555555555555555555555#$$$@#@44,44,,,  ;;;;::& ,4444@# XX->63366666333777",
"XX 1#88884 ;;;;;;;::  488888#1....................................#@44444,  :;;;;::;& ,4444@# XX->77636663776377",
"XX 1#88884 ;;;;:::::: 488888#1.==================================.#@44444, ::;;;::;;& ,4444@# XX->76633333766333",
"XX 1#88884 &;::::::;& 488888#1.===<<<<<<<<<<<<<<<<<<<<<<<<<<<<===.#@44444, :;;;::;;;& ,4444@# XX->>66666666>6666",
"X  ##88884 :::::;;;;& 488888#1.==<<<<<===================<<<<<<==.#@44444, ;;;;::;&&& ,4444@@  X-->>>>>>>>>->>>>",
"X 22#X8884  ::&&;;;;& 488888#1.=<<<<<<<<====<<<<<<<====<<<<<<<<<=.#@44444, ;;;::&&&&  ,444X@,, X%----------%----",
"X 2222XX8844  &&&&;;& 488888#1.=<<<==========================<<<=.#@44444, ;;::&&&  ,,,4XX,,,, X6663777777736666",
"X ,24422XX8844  &&&&& 488888#1.=<<<<<====<<<<<<<<<<<<<<====<<<<<=.#@44444, ;:::&  ,,44XX,,22,* X6663777777736666",
"X  ,,24422XX8844  &&& 488888#1.=<<============================<<=.#@44444, :::  ,,44XX,,22,**  X6633377777333666",
"XXX  ,,24422XX8844  & 488888#1.=<<<<<====<<<<<<<<<<<<<<====<<<<<=.#@44444, :  ,,44XX,,22,**  XXX6377637773776366",
"%XXXX  ,,24422XX8844  488888#1.=<<<==========================<<<=.#@44444,  ,,44XX,,22,**  XXXX%337>6333337>6333",
"%%%XXXX  ,,24422XX8844488888#1.=<<<<<<<<====<<<<<<<====<<<<<<<<<=.#@44444,,,44XX,,22,**  XXXX%%%7366636663666377",
"%%%%%XXXX  ,,24422XX88888888#1.=<<<<<<====================<<<<<<=.#@44444444XX,,22,**  XXXX%%%%%7733366666333777",
"%%%%%%%XXXX  ,,24422XX888888#1.==<<<<<<<<<<<<<<<<<<<<<<<<<<<<<<==.#@444444XX,,22,**  XXXX%%%%%%%7773666666637777",
"%%%%%%%%%XXXX  ,,24422XX8888#1.===<<<<<<<<<<<<<<<<<<<<<<<<<<<<===.#@4444XX,,22,**  XXXX%%%%%%%%%7773666666637777",
"%%%%%%%%%%%XXXX  ,,24422XX88#1.==================================.#@44XX,,22,**  XXXX%%%%%%%%%%%7773666666637777",
"%%%%%%%%%%%%%XXXX  ,,24422XX#1.OOOOOOOOOOOOOOOOOOOOOOOOOOOOOOOOOO.#@XX,,22,**  XXXX%%%%%%%%%%%%%7733366666333777",
"%%%%%%%%%%%%%%%XXXX  ,,24422##.++++++++++++++++++++++++++++++++++.@@,,22,**  XXXX%%%%%%%%%%%%%%%7377636663776377",
"%%%%%%%%%%%%%%%%%XXXX  ,,24422.++++++++++++++++++++++++++++++++++.,,22,**  XXXX%%%%%%%%%%%%%%%%%3376633333766333",
"%%%%%%%%%%%%%%%%%%%XXXX  ,,242.++++++++++++++++++++++++++++++++++.,2,**  XXXX%%%%%%%%%%%%%%%%%%%666>6666666>6666",
"%%%%%%%%%%%%%%%%%%%%%XXXX  ,,2....................................,**  XXXX%%%%%%%%%%%%%%%%%%%%%>>>->>>>>>>->>>>",
"%%%%%%%%%%%%%%%%%%%%%%%XXXX  , ,,,,,,,,,,,,,,,,,,,,,,,,,,,,,,,,,, *  XXXX%%%%%%%%%%%%%%%%%%%%%%%---%-------%----",
"%%%%%%%%%%%%%%%%%%%%%%%%%XXXX  4                                4  XXXX%%%%%%%%%%%%%%%%%%%%%%%%%6663777777736>-%",
"%----------%----%%%%%%%%%%%XXX 4 ;;;::&  ;;;::&  ;;;::&  ;;;::& 4 XXX%%%%%%%%%%%---%-------%----6663777777736>-%",
"-->>>>>>>>>->>>>%%%%%%%%%%%%%X 4 ;;;::&  ;;;::&  ;;;::&  ;;;::& 4 X%%%%%%%%%%%%%>>>->>>>>>>->>>>6633377777336>-%",
"->>76666667>6666%%%%%%%%%%%%%X 4 ;;;::&  ;;;::&  ;;;::&  ;;;::& 4 X%%%%%%%%%%%%%667>6666667>66666377637773776>-%",
"->76633333766333%%%%%%%%%%%%%X 4 ;;::;&  ;;::;&  ;;::;&  ;;::;& 4 X%%%%%%%%%%%%%3376633333766333337>63333376>-%%",
"->66636663666377%%%%%%%%%%%%%X 4 ;;::;&  ;;::;&  ;;::;&  ;;::;& 4 X%%%%%%%%%%%%%73666366636663777366636663666>-%",
"->63366666333777%%%%%%%%%%%%%X 4 ;;::;&  ;;::;&  ;;::;&  ;;::;& 4 X%%%%%%%%%%%%%77333666663337777733366666336>-%",
"->63666666637777%%%%%%%%%%%%%X 4 ;;::;&  ;;::;&  ;;::;&  ;;::;& 4 X%%%%%%%%%%%%%77736666666377777773666666636>-%",
"->63666666637777%%%%%%%%%%%%%X 4 ;::;;&  ;::;;&  ;::;;&  ;::;;& 4 X%%%%%%%%%%%%%77736666666377777773666666636>-%",
"->63666666637777%%%%%%%%%%%%%X 4 ;::;;&  ;::;;&  ;::;;&  ;::;;& 4 X%%%%%%%%%%%%%77736666666377777773666666636>-%",
"->63366666333777%%%%%%%%%%%%%X 4 ;::;;&  ;::;;&  ;::;;&  ;::;;& 4 X%%%%%%%%%%%%%77333666663337777733366666336>-%",
"->77636663776377%%%%%%%%%%%%%X 4 ;;&&&&  ;;&&&&  ;;&&&&  ;;&&&& 4 X%%%%%%%%%%%%%73776366637763777377636663776>-%",
"%->66333337>6333%%%%%%%%%%%%%X 4 ;;&&&&  ;;&&&&  ;;&&&&  ;;&&&& 4 X%%%%%%%%%%%%%337>6333337>63333376633333766>-%",
"->66637773666366%%%%%%%%%%%%%X 4                                4 X%%%%%%%%%%%%%6366637773666366666>66666666>>-%",
"->63377777333666%%%%%%%%%%%%%X   XXXXXXXXXXXXXX  XXXXXXXXXXXXXX   X%%%%%%%%%%%%%6633377777333666>>>->>>>>>>>>--%",
"->63777777736666%%%%%%%%%%%%%XXXXXXXXXXXXXXXXXXXXXXXXXXXXXXXXXXXXXX%%%%%%%%%%%%%6663777777736666---%----------%%"
};
