/* XPM */
static char *pokecenter[] = {
/* columns rows colors chars-per-pixel */
"80 96 13 1",
"  c #0F142A",
". c #464544",
"X c #BA1D21",
"o c #972023",
"O c #EB4347",
"+ c #F36D77",
"@ c #FF00FF",
"# c #3698B8",
"$ c #778A95",
"% c #52A8C3",
"& c #72B7CD",
"* c #94A3AC",
"= c #CDDCDC",
/* pixels */
"@@@@@@@@@@@@@@@@@@@@@@@@@@@@@@@@@@@@@@@@@@@@@@@@@@@@@@@@@@@@@@@@@@@@@@@@@@@@@@@@",
"@@@@@@@@@@@@@@@@@@@@@@@@@@@@@@@@@@@@@@@@@@@@@@@@@@@@@@@@@@@@@@@@@@@@@@@@@@@@@@@@",
"@@@@@@@@@@@@@@@@@@@@@@@@@@@@@@@@@@@@@@@@@@@@@@@@@@@@@@@@@@@@@@@@@@@@@@@@@@@@@@@@",
"@@@@@@@@@@@@@@@@@@@@@@@@@@@@@@@@@@@@@@@@@@@@@@@@@@@@@@@@@@@@@@@@@@@@@@@@@@@@@@@@",
"@@@@@@@@@@@@@@@@@@@@@@@@@@@@@@@@@@@@@@@@@@@@@@@@@@@@@@@@@@@@@@@@@@@@@@@@@@@@@@@@",
"@@@@@@@@@@@@@@@@@@@@@@@@@@@@@@@@@@@@@@@@@@@@@@@@@@@@@@@@@@@@@@@@@@@@@@@@@@@@@@@@",
"@@@@@@@@@@@@@@@@@@@@@@@@@@@@@@@@@@@@@@@@@@@@@@@@@@@@@@@@@@@@@@@@@@@@@@@@@@@@@@@@",
"@@@@@@@@@@@@@@@@@@@@@@@@@@@@@@@@@@@@@@@@@@@@@@@@@@@@@@@@@@@@@@@@@@@@@@@@@@@@@@@@",
"@@@@@@@@@@@@@@@@@@@@@@@@@@@@@@@@@@@@@@@@@@@@@@@@@@@@@@@@@@@@@@@@@@@@@@@@@@@@@@@@",
"@@@@@@@@@@@@@@@@@@@@@@@@@@@@@@@@@@@@@@@@@@@@@@@@@@@@@@@@@@@@@@@@@@@@@@@@@@@@@@@@",
"@@@@@@@@@@@@@@@@@@@@@@@@@@@@@@@@@@@@@@@@@@@@@@@@@@@@@@@@@@@@@@@@@@@@@@@@@@@@@@@@",
"@@@@@@@@@@@@@@@@@@@@@@@@@@@@@@@@@@@@@@@@@@@@@@@@@@@@@@@@@@@@@@@@@@@@@@@@@@@@@@@@",
"@@@@@@@@@@@@@@@@@@@@@@@@@@@@@@@@@@@@@@@@@@@@@@@@@@@@@@@@@@@@@@@@@@@@@@@@@@@@@@@@",
"@@@@@@@@@@@@@@@@@@@@@@@@@@@@@@@@@@@@@@@@@@@@@@@@@@@@@@@@@@@@@@@@@@@@@@@@@@@@@@@@",
"@@@@@@oooooooooooooooooooooooooooooooooooooooooooooooooooooooooooooooooooo@@@@@@",
"@@@@@oOOOOOOOOOOOOOOOOOOOOOOOOOOOOOOOOOOOOOOOOOOOOOOOOOOOOOOOOOOOOOOOOOOOOo@@@@@",
"@@@@oOOooooooooooooooooooooooooooooooooooooooooooooooooooooooooooooooooooOOo@@@@",
"@@@oOOoOOXOOOXOOOXOOOXOOOXOOOXOOOXoO++++++++OoOOOXOOOXOOOXOOOXOOOXOOOXOOOoOOo@@@",
"@@oOOoOOOXOOOXOOOXOOOXOOOXOOOXOOOXoO++OOOO++OoOOOXOOOXOOOXOOOXOOOXOOOXOOOXoOOo@@",
"@oOOoXOOOXOOOXOOOXOOOXOOOXOOOXOOOXoO++O++O++OoOOOXOOOXOOOXOOOXOOOXOOOXOOOXOoOOo@",
"oOOoXXXXXXXXXXXXXXXXXXXXXXXXXXXXXXoO++O++O++OoXXXXXXXXXXXXXXXXXXXXXXXXXXXXXXoOOo",
"oOoOOXOOOXOOOXOOOXOOOXOOOXOOOXOOOXoO++OOOO++OoOOOXOOOXOOOXOOOXOOOXOOOXOOOXOOOoOo",
"oOoOOXOOOXOOOXOOOXOOOXOOOXOOOXOOOXoO++O++O++OoOOOXOOOXOOOXOOOXOOOXOOOXOOOXOOOoOo",
"oOoOOXOOOXOOOXOOOXOOOXOOOXOOOXOOOXoO++O++O++OoOOOXOOOXOOOXOOOXOOOXOOOXOOOXOOOoOo",
"oOoXXXXXXXXXXXXXXXXXXXXXXXXXXXXXXXoO++OOOO++OoXXXXXXXXXXXXXXXXXXXXXXXXXXXXXXXoOo",
"oOoOOXOOOXOOOXOOOXOOOXOOOXOOOXOOOXoO++O++O++OoOOOXOOOXOOOXOOOXOOOXOOOXOOOXOOOoOo",
"oOoOOXOOOXOOOXOOOXOOOXOOOXOOOXOOOXoO++O++O++OoOOOXOOOXOOOXOOOXOOOXOOOXOOOXOOOoOo",
"oOoOOXOOOXOOOXOOOXOOOXOOOXOOOXOOOXoO++OOOO++OoOOOXOOOXOOOXOOOXOOOXOOOXOOOXOOOoOo",
"oOoXXXXXXXXXXXXXXXXXXXXXXXXXXXXXXXoO++O++O++OoXXXXXXXXXXXXXXXXXXXXXXXXXXXXXXXoOo",
"oOoOOXOOOXOOOXOOOXOOOXOOOXOOOXOOOXoO++O++O++OoOOOXOOOXOOOXOOOXOOOXOOOXOOOXOOOoOo",
"oOoOOXOOOXOOOXOOOXOOOXOOOXOOOXOOOXoO++OOOO++OoOOOXOOOXOOOXOOOXOOOXOOOXOOOXOOOoOo",
"oOoOOXOOOXOOOXOOOXOOOXOOOXOOOXOOOXoO++O++O++OoOOOXOOOXOOOXOOOXOOOXOOOXOOOXOOOoOo",
"oOoXXXXXXXXXXXXXXXXXXXXXXXXXXXXXXXoO++O++O++OoXXXXXXXXXXXXXXXXXXXXXXXXXXXXXXXoOo",
"oOoOOXOOOXOOOXOOOXOOOXOOOXOOOXOOOXoO++OOOO++OoOOOXOOOXOOOXOOOXOOOXOOOXOOOXOOOoOo",
"oOoOOXOOOXOOOXOOOXOOOXOOOXOOOXOOOXoO++O++O++OoOOOXOOOXOOOXOOOXOOOXOOOXOOOXOOOoOo",
"oOoOOXOOOXOOOXOOOXOOOXOOOXOOOXOOOXoO++O++O++OoOOOXOOOXOOOXOOOXOOOXOOOXOOOXOOOoOo",
"oOoXXXXXXXXXXXXXXXXXXXXXXXXXXXXXXXoO++OOOO++OoXXXXXXXXXXXXXXXXXXXXXXXXXXXXXXXoOo",
"oOoOOXOOOXOOOXOOOXOOOXOOOXOOOXOOOXoO++O++O++OoOOOXOOOXOOOXOOOXOOOXOOOXOOOXOOOoOo",
"oOoOOXOOOXOOOXOOOXOOOXOOOXOOOXOOOXoO++O++O++OoOOOXOOOXOOOXOOOXOOOXOOOXOOOXOOOoOo",
"oOoOOXOOOXOOOXOOOXOOOXOOOXOOOXOOOXoO++OOOO++OoOOOXOOOXOOOXOOOXOOOXOOOXOOOXOOOoOo",
"oOoXXXXXXXXXXXXXXXXXXXXXXXXXXXXXXXoO++O++O++OoXXXXXXXXXXXXXXXXXXXXXXXXXXXXXXXoOo",
"oOoOOXOOOXOOOXOOOXOOOXOOOXOOOXOOOXoO++O++O++OoOOOXOOOXOOOXOOOXOOOXOOOXOOOXOOOoOo",
"oOoOOXOOOXOOOXOOOXOOOXOOOXOOOXOOOXoO++OOOO++OoOOOXOOOXOOOXOOOXOOOXOOOXOOOXOOOoOo",
"oOoOOXOOOXOOOXOOOXOOOXOOOXOOOXOOOXoO++O++O++OoOOOXOOOXOOOXOOOXOOOXOOOXOOOXOOOoOo",
"oOoXXXXXXXXXXXXXXXXXXXXXXXXXXXXXXXoO++O++O++OoXXXXXXXXXXXXXXXXXXXXXXXXXXXXXXXoOo",
"oOoOOXOOOXOOOXOOOXOOOXOOOXOOOXOOOXoO++OOOO++OoOOOXOOOXOOOXOOOXOOOXOOOXOOOXOOOoOo",
"oOoOOXOOOXOOOXOOOXOOOXOOOXOOOXOOOXoO++O++O++OoOOOXOOOXOOOXOOOXOOOXOOOXOOOXOOOoOo",
"oOoOOXOOOXOOOXOOOXOOOXOOOXOOOXOOOXoO++O++O++OoOOOXOOOXOOOXOOOXOOOXOOOXOOOXOOOoOo",
"oOoXXXXXXXXXXXXXXXXXXXXXXXXXXXXXXXoO++OOOO++OoXXXXXXXXXXXXXXXXXXXXXXXXXXXXXXXoOo",
"oOoOOXOOOXOOOXOOOXOOOXOOOXOOOXOOOXoO++O++O++OoOOOXOOOXOOOXOOOXOOOXOOOXOOOXOOOoOo",
"oOoOOXOOOXOOOXOOOXOOOXOOOXOOOXOOOXoO++O++O++OoOOOXOOOXOOOXOOOXOOOXOOOXOOOXOOOoOo",
"oOOoOXOOOXOOOXOOOXOOOXOOOXOOOXOOOXoO++OOOO++OoOOOXOOOXOOOXOOOXOOOXOOOXOOOXOOoOOo",
"ooOOoXXXXXXXXXXXXXXXXXXXXXXXXXXXXXoO++O++O++OoXXXXXXXXXXXXXXXXXXXXXXXXXXXXXoOOoo",
" OoOOoOOOXOOOXOOOXOOOXOOOXOOOXOOOXoO++O++O++OoOOOXOOOXOOOXOOOXOOOXOOOXOOOXoOOoo ",
" OOoOOoOOXOOOXOOOXOOOXOOOXOOOXOOOXoO++OOOO++OoOOOXOOOXOOOXOOOXOOOXOOOXOOOoOOooo ",
"@ OOoOOooooooooooooooooOOXOOOXOOOXoO++O++O++OoOOOXOOOXOOOooooooooooooooooOOooo .",
"@. OOoOOOOOOOOOOOOOOOOOoXXXXXXXXXXoO++O++O++OoXXXXXXXXXXoOOOOOOOOOOOOOOOOOooo ..",
"@.  OOooooooooooooooooOOoXOOOXOOOXoO++OOOO++OoOOOXOOOXOoOOoooooooooooooooooo  ..",
"@. * OXXXXXXXXXXXXXXXXoOOoOOOXOOOXoO++++++++OoOOOXOOOXoOOoXXXXXXXXXXXXXXXXo . ..",
"@. ** XXXXXXXXXXXXXXXXOoOOooooooooooooooooooooooooooooOOooXXXXXXXXXXXXXXXX .. ..",
"@. **.                OOoOOOOOOOOOOOOOOOOOOOOOOOOOOOOOOooo                 .. ..",
"@. **. %%& * %%& * %%& OOoooooooooooooooooooooooooooooooo %%& * %%& * %%&  .. ..",
"@. **. %&& * %&& * %&&  OXXXXXXXXXXXXXXXXXXXXXXXXXXXXXXo  %&& * %&& * %&&  .. ..",
"@. **. %&# = %&# = %&# $ XXXXXXXXXXXXXXXXXXXXXXXXXXXXXX . %&# = %&# = %&#  .. ..",
"@. **. %&# = %&# = %&# *                                . %&# = %&# = %&#  .. ..",
"@. **. &&# = &&# = &&# *...... . ************** . ..... . &&# = &&# = &&#  .. ..",
"@. **. &## = &## = &## *...... . ************** . ..... . &## = &## = &##  .. ..",
"@. **. &## = &## = &## *.$$$$$ . *============*.*.$$$$$ . &## = &## = &##  .. ..",
"@. **.     =     =     *.$$$$$ . *============*.*.$$$$$ .     =     =      .. ..",
"@. **.*****=*****=****.*.$*$$$ . *=OOO====OO==*.*.$*$$$ . ****=*****=***** .. ..",
"@. **.===============*.*.$**$$ . *=X**X==X**==*.*.$**$$ . *=============== .. ..",
"@. **.===============*.*.$**$$ . *=X==X==X====*.*.$**$$ . *=============== .. ..",
"@. **..................*.$**$$ . *=ooo*==o====*.*.$**$$ . ................ .. ..",
"@. **.**============**.*.$**$$ . *=o**=o=*oo=o*.*.$**$$ . **============** .. ..",
"@. **.****************.*.$**$$ . *=*===*==**=**.*.$**$$ . **************** .. ..",
"@. **..................*.$**$$ . *============*.*.$**$$ . ................ .. ..",
"@. **.===============*.*.$**$$ . *=ooo=oo=ooo=*.*.$**$$ . *=============== .. ..",
"@. **.=             =*.*.$**$$ . *=***=**=***=*.*.$**$$ . *=             = .. ..",
"@. **.= %%&%%%&&%%# =*.*.$**$$ . *============*.*.$**$$ . *= %%&%%%&&%%# = .. ..",
"@. **.= %&%%%&&%%%# =*.*.$**$$ .                *.$**$$ . *= %&%%%&&%%%# = .. ..",
"@. **.= &%%%&&%%%%& =*.*.$**$$ . %&&%%%%&&%%%%# *.$**$$ . *= &%%%&&%%%%& = .. ..",
"@. **.= %%%&&%%%%&# =*.*.$**$$ . &&%%%%&&%%%%&% *.$**$$ . *= %%%&&%%%%&# = .. ..",
"@. **.= ##&&####&## =*.*.$**$$ . &&%%%%&&%%%%&% *.$**$$ . *= ##&&####&## = .. ..",
".  **.=             =*.*.$**$$ . &%%%%&&%%%%&&# *.$**$$ . *=             = ..  .",
". .**.=*************=*.*.$**$$ . &%%%%&&%%%%&&# *.$**$$ . *=*************= ..  .",
". =.*.===============*.*.$**$$ . %%%%&&%%%%&&%# *.$**$$ . *=============== . $ .",
". ==...................*.$**$$ . %%%%&&%%%%&&%# *.$**$$ . ................  $$ .",
". ===*****************.*.$**$$ . %%%&&%%%%&&%%# *.$**$$ . *****************$$$ .",
".. ==**=============**.*.$**$$ . %%%&&%%%%&&%%# *.$**$$ . **=============**$$ ..",
"@.. =*****************.*.$**$$ . %%&&%%%%&&%%%# *.$**$$ . *****************$ ..@",
"@@..                  .*.$**$$ . %%&&%%%%&&%%%# *.$**$$ .                   ..@@",
"@@@................... *.$*$$$ . #%%####%%##### *.$*$$$ . ...................@@@",
"@@@@@@@@@@@@@@@@@@@@@.. .$$$$$ . #%%####%%##### *.$$$$$  ..@@@@@@@@@@@@@@@@@@@@@",
"@@@@@@@@@@@@@@@@@@@@@@.. $$$$$ .                *.$$$$$ ..@@@@@@@@@@@@@@@@@@@@@@",
"@@@@@@@@@@@@@@@@@@@@@@@..        ..............        ..@@@@@@@@@@@@@@@@@@@@@@@",
"@@@@@@@@@@@@@@@@@@@@@@@@................................@@@@@@@@@@@@@@@@@@@@@@@@"
};
