/* XPM */
static char *stairs[] = {
/* columns rows colors chars-per-pixel */
"272 48 73 1",
"  c #7E3F50",
". c #5F4A5F",
"X c #67475B",
"o c #6B465A",
"O c #63495E",
"+ c #744355",
"@ c #7A4152",
"# c #524E66",
"$ c #5C4B61",
"% c #505068",
"& c #9F343F",
"* c #AD2F39",
"= c #B42D36",
"- c #BC2B32",
"; c #B12F38",
": c #A4333E",
"> c #AA313B",
", c #E41D1E",
"< c #EC1C1C",
"1 c #DD1F21",
"2 c #E01E20",
"3 c #C6272D",
"4 c #CB262A",
"5 c #C5282E",
"6 c #D52226",
"7 c #DC2022",
"8 c #D02428",
"9 c #C12930",
"0 c #EC2525",
"q c #EC2B2B",
"w c #ED3232",
"e c #EE3E3E",
"r c #F86030",
"t c #853D4D",
"y c #8B3B4A",
"u c #973744",
"i c #9B3642",
"p c #953845",
"a c #903A48",
"s c #803F50",
"d c #987058",
"f c #EE4444",
"g c #EF4949",
"h c #EF5050",
"j c #F05454",
"k c #F05959",
"l c #F16464",
"z c #F26C6C",
"x c #F37474",
"c c #F37B7B",
"v c #FF00FF",
"b c #909090",
"n c #9090A0",
"m c #88B0A8",
"M c #F48484",
"N c #F48C8C",
"B c #F59292",
"V c #F69B9B",
"C c #F6A3A3",
"Z c #F7ABAB",
"A c #F7B0B0",
"S c #F8B4B4",
"D c #F9BBBB",
"F c #C8B8C0",
"G c #C0D8C8",
"H c #F9C2C2",
"J c #FACCCC",
"K c #FAD3D3",
"L c #FBDBDB",
"P c #FCE4E4",
"I c #FCECEC",
"U c #FDF3F3",
"Y c #FFFFFF",
/* pixels */
"%%%%%%%%%%%%%%%%YYYYYYYYYYYYYYYY%%%%%%%%%%%%%%%%YYYYYYYYYYYYYYYY%%%%%%%%%%%%%%%%YYYYYYYYYYYYYYYY%%%%%%%%%%%%%%%%YYYYYYYYYYYYYYYY%%%%%%%%%%%%%%%%YYYYYYYYYYYYYYYY%%%%%%%%%%%%%%%%YYYYYYYYYYYYYYYY%%%%%%%%%%%%%%%%YYYYYYYYYYYYYYYY%%%%%%%%%%%%%%%%YYYYYYYYYYYYYYYY%%%%%%%%%%%%%%%%",
"%%%%%%%%%%%%%%%%YYYYYYYYYYYYYYYY%%%%%%%%%%%%%%%%YYYYYYYYYYYYYYYY%%%%%%%%%%%%%%%%YYYYYYYYYYYYYYYY%%%%%%%%%%%%%%%%YYYYYYYYYYYYYYYY%%%%%%%%%%%%%%%%YYYYYYYYYYYYYYYY%%%%%%%%%%%%%%%%YYYYYYYYYYYYYYYY%%%%%%%%%%%%%%%%YYYYYYYYYYYYYYYY%%%%%%%%%%%%%%%%YYYYYYYYYYYYYYYY%%%%%%%%%%%%%%%%",
"%%%%%%%%%%%%%%%%YYYYYYYYYYYYYYYY%%%%%%%%%%%%%%%%YYYYYYYYYYYYYYYY%%%%%%%%%%%%%%%%YYYYYYYYYYYYYYYY%%%#u6,-$%%%%%%%YYYYYYYYYYYYYYYY%%%o5,1;.#%%%%%%YYYKk0eVYYYYYYYY%%%%%%%%%%%%%%%%YYYYYYYYYYYYYYYY%%%%%%%%%%%%%%%%YYYYYYYYYYYYYYYY%%%%%%%%%%%%%%%%YYYYYYYYYYYYYYYY%%%%%%%%%%%%%%%%",
"%%%%$;16:%%%%%%%YYYYYYYYYYYYYYYY%%%%%%%%%%%%%%%%YYYYYKk0wxUYYYYY%%%%%%%%%%%%%%%%YYYYYYYYYYYYYYYY%%%u,ut65%%%%%%%YYV<<<<<0KYYYYYY%%$1-ty44%%%%%%%YYP0zSCqBYYYYYYY%%%%%%%%%%%%%%%%YYYYYYYYYYYYYYYY%%%%%%%%%%%%%%%%YYYYYYYYYYYYYYYY%#4,o%%%@1$%%%%%YYYYYYYYYYYYYYYY%%%%%%%%%%%%%%%%",
"%%%%36au,>%%%%%%YYYYYYYYYYYYYYYY%%%%%O-1,-O#%%%%YYYYI0kAVwzYYYYY%%%%%%%%%%*6.%%%YYYc,,<<lYYYYYYY%%#7i%%o-#%%%%%%YYPAAAZl0PYYYYYY%%@<O%%s<$%%%%%%YYBwYYYC0YYYYYYY%%%%%%42+%.*,5X%YYYYYYYYYYYYYYYY%#4,o#$-26+%%%%%YYYYYYYYYYYYYYYY%%%5y%%O1<O%%%%%YYYYYYYYYYYYYYYY%%%%%%%%%%%%%%%%",
"%%%@<o%%y,.%%%%%YYYYYYZ0<cYYYYYY%%%%#74ty84#%%%%YYYYPzUYYNqYYYYY%%%%%%%%%&<<.%%%YYYwxSSDLYYYYYYY%%@<.#X#%%%%%%%%YYYYYYUqMYYYYYYY%%$,i$O=6%%%%%%%YYMeYYYA<LYYYYYY%%%%%%%5t%:=.&-%YYYg0JYYg0JYYYYY%%%5t%i*#p3%%%%%YYYg0JYIk0gLYYYY%%%5t##4t,X%%%%%YYYYg0JYK0<<CYYY%%r%%rrrrr%%%%%%",
"%%%i1%%%.<@%%%%%YYYYYYPBkwYYYYYY%%%% <+%%t<O%%%%YYYYYYYYYkkYYYYY%%%%%%%%+<&<.%%%YYY<SYYYYYYYYYYY%%y1*<<2 %%%%%%%YYYYYYNqIYYYYYYY%%%t<<<<+%%%%%%%YYH<CULf<DYYYYYY%%%%%%%5t%4t%X,%YYYYhZYYYjZYYYYY%%%5y%##O3u%%%%%YYYYjZYZVYMzYYYY%%%3y%>;%2X%%%%%YYYYYkZYVzYYYYYY%%r%%r%%%%%%%%%%",
"%%%;4%%%%<y%%%%%YYYYYYYYNqYYYYYY%%%##+%%%;<#%%%%YYYYYYCfqqPYYYYY%%%%%%%.7&@<.%%%YYP<kwqcUYYYYYYY%%p<-O#:,.%%%%%%YYYYYI0BYYYYYYYY%%X,;tt37#%%%%%%YYYV<<0c<KYYYYYY%%%%%%%5t#4t%.,#YYYYhZYYYkZYYYYY%%%5t%#p6y#%%%%%YYYYjZYYLMfHYYYY%%%5t%8,<<7#%%%%YYYYYhZYN0qgKYYY%%r%%r%%%%%%%%%%",
"%%%*4%%%%<y%%%%%YYYYYYYYNqYYYYYY%%%%%%%#*<p%%%%%YYYYYYKNxqxYYYYY%%%%%%%-3# <#%%%YYK<gACwzYYYYYYY%%t<o%%#<t%%%%%%YYYYYV<UYYYYYYYY%%>6%%%$,y%%%%%%YYYYUKUJ<IYYYYYY%%%%%%%5t%:;#u=%YYYYjZYYYjZYYYYY%%%3y%y4$%%%%%%%YYYYjZYYUZlMYYYY%%%=@%%%%8.%%%%%YYYYYjZYDZYBhYYY%%r%%rrrrr%%%%%%",
"%%%i7%%%.<@%%%%%YYYYYYYYNqYYYYYY%%%%%#X62t%%%%%%YYYYYYYYYS<PYYYY%%%%%%&2.%@<.%%%YYUMIYYV<UYYYYYY%%O<@%%.<@%%%%%%YYYYYjkYYYYYYYYY%%>6%%%$,a%%%%%%YYPzIYYMgYYYYYYY%%%%%%%=@%.-25.%YYYYkZYYYjZYYYYY%%%=@%;<<<3%%%%%YYYYjZYcDYVfYYYY%%%%%%%%%%%%%%%%YYYYYkZYCZUMkYYY%%r%%r%%%r%%%%%%",
"%%%@<o%%y,.%%%%%YYYYYYYYNqYYYYYY%%%%%o23$%%%%%%%YYYYCcYYYH<KYYYY%%%%%%3<<<<<,&%%YYYYYYYD<LYYYYYY%%%;6yt58#%%%%%%YYYYI<VYYYYYYYYY%%+<;tt91.%%%%%%YYP0hAN<ZYYYYYYY%%%%%%%%%%%%%%%%YYYYlDYYYlDYYYYY%%%%%%%%%%%%%%%%YYYYlDYLk0gJYYYY%%%%%%%%%%%%%%%%YYYYYlDYPk0jPYYY%%r%%r%%%r%%%%%%",
"%%%#46yu,:%%%%%%YYYYYYYYNqYYYYYY%%%%#79#%%%%%%%%YYYYS<xAZefYYYYY%%%%%%.@@ &< .%%YYLlUYYB<YYYYYYY%%%#:6,=.%%%%%%%YYYYC<LYYYYYYYYY%%%@3109o%%%%%%%YYYJg0fZYYYYYYYY%%%%%%%%%%%%%%%%YYYYYYYYYYYYYYYY%%%%%%%%%%%%%%%%YYYYYYYYYYYYYYYY%%%%%%%%%%%%%%%%YYYYYYYYYYYYYYYY%%r%%rrrrr%%%%%%",
"%%%%$;16&%%%%%%%YYYYYYYYNqYYYYYY%%%% <u sss#%%%%YYYYYAg0wxPYYYYY%%%%%%%%%%@<#%%%YYL<kZV0MYYYYYYY%%%%%%%%%%%%%%%%YYYYBjYYYYYYYYYY%%%%%%%%#%%%%%%%YYYYYYYYYYYYYYYY%%%%%%%%%%%%%%%%YYYYYYYYYYYYYYYY%%%%%%%%%%%%%%%%YYYYYYYYYYYYYYYY%%%%%%%%%%%%%%%%YYYYYYYYYYYYYYYY%%%%%%%%%%%%%%%%",
"%%%%%%#%#%%%%%%%YYYYYYYYNqYYYYYY%%%%t<<<<<<+%%%%YYYYYYYYYYYYYYYY%%%%%%%%%%o6%%%%YYYHg0wNYYYYYYYY%%%%%%%%%%%%%%%%YYYYYYYYYYYYYYYY%%%%%%%%%%%%%%%%YYYYYYYYYYYYYYYY%%%%%%%%%%%%%%%%YYYYYYYYYYYYYYYY%%%%%%%%%%%%%%%%YYYYYYYYYYYYYYYY%%%%%%%%%%%%%%%%YYYYYYYYYYYYYYYY%%%%%%%%%%%%%%%%",
"%%%%%%%%%%%%%%%%YYYYYYYYZhYYYYYY%%%%%%%%%%%%%%%%YYYYYYYYYYYYYYYY%%%%%%%%%%#%%%%%YYYYYYYYYYYYYYYY%%%%%%%%%%%%%%%%YYYYYYYYYYYYYYYY%%%%%%%%%%%%%%%%YYYYYYYYYYYYYYYY%%%%%%%%%%%%%%%%YYYYYYYYYYYYYYYY%%%%%%%%%%%%%%%%YYYYYYYYYYYYYYYY%%%%%%%%%%%%%%%%YYYYYYYYYYYYYYYY%%%%%%%%%%%%%%%%",
"%%%%%%%%%%%%%%%%YYYYYYYYYYYYYYYY%%%%%%%%%%%%%%%%YYYYYYYYYYYYYYYY%%%%%%%%%%%%%%%%YYYYYYYYYYYYYYYY%%%%%%%%%%%%%%%%YYYYYYYYYYYYYYYY%%%%%%%%%%%%%%%%YYYYYYYYYYYYYYYY%%%%%%%%%%%%%%%%YYYYYYYYYYYYYYYY%%%%%%%%%%%%%%%%YYYYYYYYYYYYYYYY%%%%%%%%%%%%%%%%YYYYYYYYYYYYYYYY%%%%%%%%%%%%%%%%",
"%%vvvvvvvvvvvvvv%%%%%%%%%%%%%%%v%%vvvvvvvvvvvvvv%%%%%%%%%%%%%%%v%%vvvvvvvvvvvvvv%%%%%%%%%%%%%%%v%%vvvvvvvvvvvvvv%%%%%%%%%%%%%%%v%%vvvvvvvvvvvvvvnnF%%%%%%%%%%%%v%%vvvvvvvvvvvvvvnF%%%%%%%%%%%%%v%%vvvvvvvvvvvvvvn%%%%%%%%%%%%%%v%%vvvvvvvvvvvvvv%%%%%%%%%%%%%%%vvvvvvvvvvvvvvvvv",
"rr%%vvvvvvvvvvvv%%nnnnn%nnnnnn%vrr%%vvvvvvvvvvvv%nnnnn%nnnnnnn%vrr%%vvvvvvvvvvvvnnnnn%nnnnnnnn%vrr%%vvvvvvvvvvvvnnnn%nnnnnnnnn%vrr%%vvvvvvvvvvvv%%n%%%nnnnnnnn%vrr%%vvvvvvvvvvvv%n%%%nnnnnnnnn%vrr%%vvvvvvvvvvvvF%%%nnnnnnnnnn%vrr%%vvvvvvvvvvvv%%%nnnnnnnnnnn%vvvvvvvvvvvvvvvvv",
"%%rr%%vvvvvvvvvv%%%%%%%%%%%%%%%v%%rr%%vvvvvvvvvv%%%%%%%%%%%%%%%v%%rr%%vvvvvvvvvv%%%%%%%%%%%%%%%v%%rr%%vvvvvvvvvv%%%%%%%%%%%%%%%v%%rr%%vvvvvvvvvvnnF%%%%%%%%%%%%v%%rr%%vvvvvvvvvvnF%%%%%%%%%%%%%v%%rr%%vvvvvvvvvvn%%%%%%%%%%%%%%v%%rr%%vvvvvvvvvv%%%%%%%%%%%%%%%vvvvvvvvvvvvvvvvv",
"mm%%rr%%vvvvvvvv%%nnnnn%nnnnnn%vmm%%rr%%vvvvvvvv%nnnnn%nnnnnnn%vmm%%rr%%vvvvvvvvnnnnn%nnnnnnnn%vmm%%rr%%vvvvvvvvnnnn%nnnnnnnnn%vmm%%rr%%vvvvvvvv%%n%%%nnnnnnnn%vmm%%rr%%vvvvvvvv%n%%%nnnnnnnnn%vmm%%rr%%vvvvvvvvF%%%nnnnnnnnnn%vmm%%rr%%vvvvvvvv%%%nnnnnnnnnnn%vvvvvvvvvvvvvvvvv",
"GGmm%%rr%%vvvvvv%%%%%%%%%%%%%%%vGGmm%%rr%%vvvvvv%%%%%%%%%%%%%%%vGGmm%%rr%%vvvvvv%%%%%%%%%%%%%%%vGGmm%%rr%%vvvvvv%%%%%%%%%%%%%%%vGGmm%%rr%%vvvvvvnnF%%%%%%%%%%%%vGGmm%%rr%%vvvvvvnF%%%%%%%%%%%%%vGGmm%%rr%%vvvvvvn%%%%%%%%%%%%%%vGGmm%%rr%%vvvvvv%%%%%%%%%%%%%%%vvvvvvvvvvvvvvvvv",
"GGGGmm%%rr%%vvvv%%nnnnn%nnnnnn%vGGGGmm%%rr%%vvvv%nnnnn%nnnnnnn%vGGGGmm%%rr%%vvvvnnnnn%nnnnnnnn%vGGGGmm%%rr%%vvvvnnnn%nnnnnnnnn%vGGGGmm%%rr%%vvvv%%n%%%nnnnnnnn%vGGGGmm%%rr%%vvvv%n%%%nnnnnnnnn%vGGGGmm%%rr%%vvvvF%%%nnnnnnnnnn%vGGGGmm%%rr%%vvvv%%%nnnnnnnnnnn%vvvvvvvvvvvvvvvvv",
"GGGGGGmm%%rr%%vv%%%%%%%%%%%%%%%vGGGGGGmm%%rr%%vv%%%%%%%%%%%%%%%vGGGGGGmm%%rr%%vv%%%%%%%%%%%%%%%vGGGGGGmm%%rr%%vv%%%%%%%%%%%%%%%vGGGGGGmm%%rr%%vvnnF%%%%%%%%%%%%vGGGGGGmm%%rr%%vvnF%%%%%%%%%%%%%v%GGGGGmm%%rr%%vvn%%%%%%%%%%%%%%vGGGGGGmm%%rr%%vv%%%%%%%%%%%%%%%vvvvvvvvvvvvvvvvv",
"GGGGGGGmmm%%rr%%%%nnnnn%nnnnnn%vGGGGGGGmmm%%rr%%%nnnnn%nnnnnnn%vGGGGGGGmmm%%rr%%nnnnn%nnnnnnnn%vGGGGGGGmmm%%rr%%nnnn%nnnnnnnnn%v%%%GGGGmmm%%rr%%%%n%%%nnnnnnnn%v%%GGGGGmmm%%rr%%%n%%%nnnnnnnnn%vF%GGGGGmmm%%rr%%F%%%nnnnnnnnnn%v%GGGGGGmmm%%rr%%%%%nnnnnnnnnnn%vvvvvvvvvvvvvvvvv",
"GGGGGGGmGGmm%%rr%%%%%%%%%%%%%%%vGGGGGGGmGGmm%%rr%%%%%%%%%%%%%%%v%%%%%GGmGGmm%%rr%%%%%%%%%%%%%%%v%%%%GGGmGGmm%%rr%%%%%%%%%%%%%%%vnnF%GGGmGGmm%%rrnnF%%%%%%%%%%%%vnF%GGGGmGGmm%%rrnF%%%%%%%%%%%%%vn%GGGGGmGGmm%%rrn%%%%%%%%%%%%%%v%GGGGGGmGGmm%%rr%%%%%%%%%%%%%%%v%%%%%%%%%%%%vvvv",
"%%%%%%%mGGGGmm%%%%nnnnn%nnnnnn%v%%%%%%GmGGGGmm%%%nnnnn%nnnnnnn%vnnnnF%GmGGGGmm%%nnnnn%nnnnnnnn%vnnnF%GGmGGGGmm%%nnnn%nnnnnnnnn%v%%n%GGGmGGGGmm%%%%n%%%nnnnnnnn%v%n%GGGGmGGGGmm%%%n%%%nnnnnnnnn%vF%GGGGGmGGGGmm%%F%%%nnnnnnnnnn%v%GGGGGGmGGGGmm%%%%%nnnnnnnnnnn%vrrrrrrrrrrUY%%vv",
"%%bnnnF%GGGGGGmm%%%%%%%%%%%%%%%v%nnnnF%mGGGGGGmm%%%%%%%%%%%%%%%v%%%%n%GmGGGGGGmm%%%%%%%%%%%%%%%v%%%n%GGmGGGGGGmm%%%%%%%%%%%%%%%vnnF%GGGmGGGGGGmmnnF%%%%%%%%%%%%vnF%GGGGmGGGGGGmmnF%%%%%%%%%%%%%vn%%%%%%%%GGGGGmmn%%%%%%%%%%%%%%v%%%%%%%%GGGGGGmm%%%%%%%%%%%%%%%v%%%%%%%%%%%%rr%v",
"%%%%%%n%GGGGGGGm%%nnnnn%nnnnnn%v%%%%%n%mGGGGGGGm%nnnnn%nnnnnnn%vnnnnF%GmGGGGGGGmnnnnn%nnnnnnnn%vnnnF%GGmGGGGGGGmnnnn%nnnnnnnnn%v%%n%%%%%%%%GGGGm%%n%%%nnnnnnnn%v%n%%%%%%%%GGGGGm%n%%%nnnnnnnnn%vF%%%nnnnF%GGGGGmF%%%nnnnnnnnnn%v%%%nnnnF%GGGGGGm%%%nnnnnnnnnnn%vmmmmmmmmmmmm%d%v",
"%%nnnnF%GGGGGGGm%%%%%%%%%%%%%%%v%nnnnF%mGGGGGGGm%%%%%%%%%%%%%%%v%%%%n%%%%%%%%GGm%%%%%%%%%%%%%%%v%%%n%%%%%%%%GGGm%%%%%%%%%%%%%%%vnnF%%%nnnnF%GGGmnnF%%%%%%%%%%%%vnF%%%nnnnF%GGGGmnF%%%%%%%%%%%%%vn%%%%%%%n%GGGGGmn%%%%%%%%%%%%%%v%%%%%%%n%GGGGGGm%%%%%%%%%%%%%%%vGGGGGGGGGGGGm%d%",
"%%%%%%n%%%%%%%%m%%nnnnn%nnnnnn%v%%%%%n%%%%%%%%Gm%nnnnn%nnnnnnn%vnnnnF%%%nnnnF%Gmnnnnn%nnnnnnnn%vnnnF%%%nnnnF%GGmnnnn%nnnnnnnnn%v%%n%%%%%%%n%GGGm%%n%%%nnnnnnnn%v%n%%%%%%%n%GGGGm%n%%%nnnnnnnnn%vF%%%nnnnF%GGGGGmF%%%nnnnnnnnnn%v%%%nnnnF%GGGGGGm%%%nnnnnnnnnnn%vGGGGGGGGGGGGG%d%",
"%%nnnnF%%%nnnnF%%%%%%%%%%%%%%%%v%nnnnF%%%nnnnF%m%%%%%%%%%%%%%%%v%%%%n%%%%%%%n%Gm%%%%%%%%%%%%%%%v%%%n%%%%%%%n%GGm%%%%%%%%%%%%%%%vnnF%%%nnnnF%GGGmnnF%%%%%%%%%%%%vnF%%%nnnnF%GGGGmnF%%%%%%%%%%%%%vn%%%%%%%n%%%%%%%n%%%%%%%%%%%%%%v%%%%%%%n%%%%%%%%%%%%%%%%%%%%%%%vmmmmmmmmmmmmm%d%",
"%%%%%%n%%%%%%%n%%%nnnnn%nnnnnn%v%%%%%n%%%%%%%n%m%nnnnn%nnnnnnn%vnnnnF%%%nnnnF%Gmnnnnn%nnnnnnnn%vnnnF%%%nnnnF%GGmnnnn%nnnnnnnnn%v%%n%%%%%%%n%%%%%%%n%%%nnnnnnnn%v%n%%%%%%%n%%%%%%%n%%%nnnnnnnnn%vF%%%nnnnF%%%nnnnF%%%nnnnnnnnnn%v%%%nnnnF%%%nnnnF%%%nnnnnnnnnnn%vmmmmmmmmmmmmm%%n",
"%%nnnnF%%%nnnnF%%%%%%%%%%%%%%%%v%nnnnF%%%nnnnF%%%%%%%%%%%%%%%%%v%%%%n%%%%%%%n%%%%%%%%%%%%%%%%%%v%%%n%%%%%%%n%%%%%%%%%%%%%%%%%%%vnnF%%%nnnnF%%%nn%%F%%%%%%%%%%%%vnF%%%nnnnF%%%nnn%F%%%%%%%%%%%%%vn%%%%%%%n%%%%%%%%%%%%%%%%%%%%%%v%%%%%%%n%%%%%%%n%%%%%%%%%%%%%%%vmmmmGGGmGGmm%%rr",
"%%%%%%n%%%%%%%n%rrrrrrrrrrUU%%%v%%%%%n%%%%%%%n%%rrrrrrrrrrYU%%%vnnnnF%%%nnnnF%%%rrrrrrrrrrUY%%%vnnnF%%%nnnnF%%%nrrrrrrrrrrUY%%%v%%n%%%%%%%n%%%%%rrrrrrrrrrYU%%%v%n%%%%%%%n%%%%%%rrrrrrrrrrUU%%%vF%%%nnnnF%%%nnnnrrrrrrrrrrUU%%%v%%%nnnnF%%%nnnnFrrrrrrrrrrYU%%%vvvmmmmGmGGGGmm%%",
"%%nnnnF%%%nnnnF%%%%%%%%%%%%%rr%v%nnnnF%%%nnnnF%%%%%%%%%%%%%%rr%v%%%%n%%%%%%%n%%%%%%%%%%%%%%%rr%v%%%n%%%%%%%n%%%%%%%%%%%%%%%%rr%vnnF%%%nnnnF%%%nn%%%%%%%%%%%%rr%vnF%%%nnnnF%%%nnn%%%%%%%%%%%%rr%vn%%%%%%%n%%%%%%%%%%%%%%%%%%%rr%v%%%%%%%n%%%%%%%n%%%%%%%%%%%%rr%vvvvvmmmmGGGGGGmm",
"%%%%%%n%%%%%%%n%mmmmmmmmmmmm%d%n%%%%%n%%%%%%%n%%mmmmmmmmmmmm%d%nnnnnF%%%nnnnF%%%mmmmmmmmmmmm%d%nnnnF%%%nnnnF%%%nmmmmmmmmmmmm%d%n%%n%%%%%%%n%%%%%mmmmmmmmmmmm%d%n%n%%%%%%%n%%%%%%mmmmmmmmmmmm%d%nF%%%nnnnF%%%nnnnmmmmmmmmmmmm%d%n%%%nnnnF%%%nnnnFmmmmmmmmmmmm%d%nvvvvvvmmmmGGGGGm",
"%%nnnnF%%%nnnnF%GGGGGGGGGGGGm%d%%nnnnF%%%nnnnF%%GGGGGGGGGGGGm%d%%%%%n%%%%%%%n%%%GGGGGGGGGGGGm%d%%%%n%%%%%%%n%%%%GGGGGGGGGGGGm%d%nnF%%%nnnnF%%%nnGGGGGGGGGGGGm%d%nF%%%nnnnF%%%nnnGGGGGGGGGGGGm%d%n%%%%%%%n%%%%%%%GGGGGGGGGGGGm%d%%%%%%%%n%%%%%%%nGGGGGGGGGGGGm%d%vvvvvvvvmmmmGGGm",
"%%%%%%n%%%%%%%n%GGGGGGGGGGGGG%d%%%%%%n%%%%%%%n%%GGGGGGGGGGGGG%d%nnnnF%%%nnnnF%%%GGGGGGGGGGGGG%d%nnnF%%%nnnnF%%%nGGGGGGGGGGGGG%d%%%n%%%%%%%n%%%%%GGGGGGGGGGGGG%d%%n%%%%%%%n%%%%%%GGGGGGGGGGGGG%d%F%%%nnnnF%%%nnnnGGGGGGGGGGGGG%d%%%%nnnnF%%%nnnnFGGGGGGGGGGGGG%d%vvvvvvvvvvmmmmGm",
"%%nnnnF%%%nnnnF%mmmmmmmmmmmmm%d%%nnnnF%%%nnnnF%%mmmmmmmmmmmmm%d%%%%%n%%%%%%%n%%%mmmmmmmmmmmmm%d%%%%n%%%%%%%n%%%%mmmmmmmmmmmmm%d%nnF%%%nnnnF%%%nnmmmmmmmmmmmmm%d%nF%%%nnnnF%%%nnnmmmmmmmmmmmmm%d%n%%%%%%%n%%%%%%%mmmmmmmmmmmmm%d%%%%%%%%n%%%%%%%nmmmmmmmmmmmmm%d%vvvvvvvvvvvvmmmm",
"%%%%%%n%%%%%%%n%mmmmmmmmmmmmm%%n%%%%%n%%%%%%%n%%mmmmmmmmmmmmm%%nnnnnF%%%nnnnF%%%mmmmmmmmmmmmm%%nnnnF%%%nnnnF%%%nmmmmmmmmmmmmm%%n%%n%%%%%%%n%%%%%mmmmmmmmmmmmm%%n%n%%%%%%%n%%%%%%mmmmmmmmmmmmm%%nF%%%nnnnF%%%nnnnmmmmmmmmmmmmm%%n%%%nnnnF%%%nnnnFmmmmmmmmmmmmm%%nvvvvvvvvvvvvvvmm",
"%%nnnnF%%%nnnnF%bbbbbbbbbbbbbbbb%nnnnF%%%nnnnF%%bbbbbbbbbbbbbbbb%%%%n%%%%%%%n%%%bbbbbbbbbbbbbbbb%%%n%%%%%%%n%%%%bbbbbbbbbbbbbbbb%%F%%%nnnnF%%%nnbbbbbbbbbbbbbbbb%F%%%nnnnF%%%nnnbbbbbbbbbbbbbbbb%%%%%%%%n%%%%%%%bbbbbbbbbbbbbbbb%%%%%%%n%%%%%%%nbbbbbbbbbbbbbbbbvvvvvvvvvvvvvvvv",
"rr%%%%n%%%%%%%n%vvvvvvvvvvvvvvvvrr%%%n%%%%%%%n%%vvvvvvvvvvvvvvvvrr%%F%%%nnnnF%%%vvvvvvvvvvvvvvvvrr%F%%%nnnnF%%%nvvvvvvvvvvvvvvvvrr%%%%%%%%n%%%%%vvvvvvvvvvvvvvvvrr%%%%%%%n%%%%%%vvvvvvvvvvvvvvvvrr%%nnnnF%%%nnnnvvvvvvvvvvvvvvvvrr%nnnnF%%%nnnnFvvvvvvvvvvvvvvvvvvvvvvvvvvvvvvvv",
"%%rr%%F%%%nnnnF%vvvvvvvvvvvvvvvv%%rr%F%%%nnnnF%%vvvvvvvvvvvvvvvv%%rr%%%%%%%%n%%%vvvvvvvvvvvvvvvv%%rr%%%%%%%n%%%%vvvvvvvvvvvvvvvv%%rr%%nnnnF%%%nnvvvvvvvvvvvvvvvv%%rr%nnnnF%%%nnnvvvvvvvvvvvvvvvv%%rr%%%%n%%%%%%%vvvvvvvvvvvvvvvv%%rr%%%n%%%%%%%nvvvvvvvvvvvvvvvvvvvvvvvvvvvvvvvv",
"mm%%rr%%%%%%%%n%vvvvvvvvvvvvvvvvmm%%rr%%%%%%%n%%vvvvvvvvvvvvvvvvmm%%rr%%nnnnF%%%vvvvvvvvvvvvvvvvmm%%rr%nnnnF%%%nvvvvvvvvvvvvvvvvmm%%rr%%%%n%%%%%vvvvvvvvvvvvvvvvmm%%rr%%%n%%%%%%vvvvvvvvvvvvvvvvmm%%rr%%F%%%nnnnvvvvvvvvvvvvvvvvmm%%rr%F%%%nnnnFvvvvvvvvvvvvvvvvvvvvvvvvvvvvvvvv",
"GGmm%%rr%%nnnnF%vvvvvvvvvvvvvvvvGGmm%%rr%nnnnF%%vvvvvvvvvvvvvvvvGGmm%%rr%%%%n%%%vvvvvvvvvvvvvvvvGGmm%%rr%%%n%%%%vvvvvvvvvvvvvvvvGGmm%%rr%%F%%%nnvvvvvvvvvvvvvvvvGGmm%%rr%F%%%nnnvvvvvvvvvvvvvvvvGGmm%%rr%%%%%%%%vvvvvvvvvvvvvvvvGGmm%%rr%%%%%%%nvvvvvvvvvvvvvvvvvvvvvvvvvvvvvvvv",
"GGGGmm%%rr%%%%n%vvvvvvvvvvvvvvvvGGGGmm%%rr%%%n%%vvvvvvvvvvvvvvvvGGGGmm%%rr%%F%%%vvvvvvvvvvvvvvvvGGGGmm%%rr%F%%%nvvvvvvvvvvvvvvvvGGGGmm%%rr%%%%%%vvvvvvvvvvvvvvvvGGGGmm%%rr%%%%%%vvvvvvvvvvvvvvvvGGGGmm%%rr%%nnnnvvvvvvvvvvvvvvvvGGGGmm%%rr%nnnnFvvvvvvvvvvvvvvvvvvvvvvvvvvvvvvvv",
"GGGGGGmm%%rr%%F%vvvvvvvvvvvvvvvvGGGGGGmm%%rr%F%%vvvvvvvvvvvvvvvvGGGGGGmm%%rr%%%%vvvvvvvvvvvvvvvvGGGGGGmm%%rr%%%%vvvvvvvvvvvvvvvvGGGGGGmm%%rr%%nnvvvvvvvvvvvvvvvvGGGGGGmm%%rr%nnnvvvvvvvvvvvvvvvvGGGGGGmm%%rr%%%%vvvvvvvvvvvvvvvvGGGGGGmm%%rr%%%nvvvvvvvvvvvvvvvvvvvvvvvvvvvvvvvv",
"mmGGGGGmmm%%rr%%vvvvvvvvvvvvvvvvmmGGGGGmmm%%rr%%vvvvvvvvvvvvvvvvmmGGGGGmmm%%rr%%vvvvvvvvvvvvvvvvmmGGGGGmmm%%rr%nvvvvvvvvvvvvvvvvmmGGGGGmmm%%rr%%vvvvvvvvvvvvvvvvmmGGGGGmmm%%rr%%vvvvvvvvvvvvvvvvmmGGGGGmmm%%rr%%vvvvvvvvvvvvvvvvmmGGGGGmmm%%rr%Fvvvvvvvvvvvvvvvvvvvvvvvvvvvvvvvv"
};
