/* XPM */
static char *tilesetbase[] = {
/* columns rows colors chars-per-pixel */
"32 32 15 1",
"  c #371414",
". c #1C3814",
"X c #422718",
"o c #5B2828",
"O c #326C36",
"+ c #704423",
"@ c #464544",
"# c #98662C",
"$ c #845047",
"% c #AA7D70",
"& c #4AB051",
"* c #6CCB70",
"= c #FF00FF",
"- c #D2A990",
"; c #99E3A4",
/* pixels */
"****************=====$$$$$======",
"****************====$%----$$====",
"**;*;*;*********===$%-------$===",
"***;*;**********==o%%%-------$==",
"***********&*&*&==o$%%%%----%o==",
"************&*&*=o-o$$%%%%%$$o==",
"****************$%--$$$$%$o  -o=",
"****************$%----$%oo $--o=",
"***&*&*&********$%%----oo$----- ",
"****&*&********* $--%  $%-----% ",
"**************** $$$o -$$%%%%%  ",
"*********;*;*;** $$$$%--$$$$o   ",
"**********;*;*** $$oo%%%- $$o   ",
"&*&*&***********@ $oo$$oo $oo  @",
"*&*&************=@   $$o      @=",
"****************==@@@     @@@@==",
"================================",
"=======================XX=======",
"===OO===OO===========XX##XX=====",
"===O;O=O*O==OOO=====X##++##X====",
"=OOO*&O*&.OO*;O====X#++##++#X===",
"=O;*O&.O&O.&*O=====X#+#++#+#X===",
"=O*&.O&.O.&O&O====&X#++##++#X&==",
"==O&O.O.O.O&OO===&X+X##++##X+X&=",
"=OO.OO...OO.&*O==&X#+X+##+X+#X&=",
"=O*&...O...OOOO==&X+X+XXXX+X+X&=",
"=&..OO.O&.O&O====&&XX+X#+X+XX&&=",
"=&.*&.&&..&**.====&&&XX#+XX&&&==",
"=&...O*&.&....=====&&&X++X&&&===",
"==&&&...&..&&&=======&&XX&&=====",
"====&&&&&&&&==========&&&&======",
"================================"
};
