/* XPM */
static char *tilesetmisc[] = {
/* columns rows colors chars-per-pixel */
"32 16 2 1",
"  c #000000",
". c #FF00FF",
/* pixels */
"                ................",
"                ................",
"                ................",
"                ................",
"                ................",
"                ................",
"                ................",
"                ................",
"                ................",
"                ................",
"                ................",
"                ................",
"                ................",
"                ................",
"                ................",
"                ................"
};
