/* XPM */
static char *tilesetdirtwater[] = {
/* columns rows colors chars-per-pixel */
"192 48 11 1",
"  c #371414",
". c #5B2828",
"X c #164876",
"o c #845047",
"O c #AA7D70",
"+ c #39AB5C",
"@ c #2257A2",
"# c #3579C4",
"$ c #FF00FF",
"% c #559AD1",
"& c #70BAD8",
/* pixels */
"$$$$$$$$$$$$$$$$$$$$$$$$$$$$$$$$$$$$$$$$$$$$$$$$$$$$$$$$$$$$$$$$$$$$$$$$$$$$$$$$$$$$$$$$$$$$$$$$$$$$$$$$$$$$$$$$$$$$$$$$$$$$$$$$$$$$$$$$$$$$$$$$$$$$$$$$$$$$$$$$$$$$$$$$$$$$$$$$$$$$$$$$$$$$$$$$",
"$$$$$$$+++$$$$++$$++$$$++$$$+++$$++$$$+++$$$$$$$$$$$$$$+++$$$$++$$++$$$++$$$+++$$++$$$+++$$$$$$$$$$$$$$+++$$$$++$$++$$$++$$$+++$$++$$$+++$$$$$$$$$$$$$$+++$$$$++$$++$$$++$$$+++$$++$$$+++$$$$$$$",
"$$$$+$+...+$++..++..+++..+++...++..+$+...+$+$$$$$$$$+$+...+$++..++..+++..+++...++..+$+...+$+$$$$$$$$+$+...+$++..++..+++..+++...++..+$+...+$+$$$$$$$$+$+...+$++..++..+++..+++...++..+$+...+$+$$$$",
"$$$+.+..Oo.+..oO.+oo..+oo.O.oOo..Oo.+..ooO+.+$$$$$$+.+..Oo.+..oO.+oo..+oo.O.oOo..Oo.+..ooO+.+$$$$$$+.+..Oo.+..oO.+oo..+oo.O.oOo..Oo.+..ooO+.+$$$$$$+.+..Oo.+..oO.+oo..+oo.O.oOo..Oo.+..ooO+.+$$$",
"$$+.OoO.ooO.oO.oO.oOo..OoOoo.ooO.ooO.o.OoooO.+$$$$+.OoO.ooO.oO.oO.oOo..OoOoo.ooO.ooO.o.OoooO.+$$$$+.OoO.ooO.oO.oO.oOo..OoOoo.ooO.ooO.o.OoooO.+$$$$+.OoO.ooO.oO.oO.oOo..OoOoo.ooO.ooO.o.OoooO.+$$",
"$$$+..o.....O......o.......o........o....o..+$$$$$$+..o.....O......o.......o........o....o..+$$$$$$+..o.....O......o.......o........o....o..+$$$$$$+..o.....O......o.......o........o....o..+$$$",
"$$+. ...o  ...o   o..o    o...o    o..  ... .+$$$$+. ...o  ...o   o..o    o...o    o..  ... .+$$$$+. ...o  ...o   o..o    o...o    o..  ... .+$$$$+. ...o  ...o   o..o    o...o    o..  ... .+$$",
"$+XXX    XX    XXX    XXXX     XXXX   XX   XXX+$$+XXX    XX    XXX    XXXX     XXXX   XX   XXX+$$+XXX    XX    XXX    XXXX     XXXX   XX   XXX+$$+XXX    XX    XXX    XXXX     XXXX   XX   XXX+$",
"$+XXXXXXXXXXXXXXXXXXXXXXXXXXXXXXXXXXXXXXXXXXXX+$$+XXXXXXXXXXXXXXXXXXXXXXXXXXXXXXXXXXXXXXXXXXXX+$$+XXXXXXXXXXXXXXXXXXXXXXXXXXXXXXXXXXXXXXXXXXXX+$$+XXXXXXXXXXXXXXXXXXXXXXXXXXXXXXXXXXXXXXXXXXXX+$",
"$+XX#XXXXX@XXXXX@@XXXX#@@@XXXXX@@@#XXX#@XXX@XX+$$+XX%XXXXX@XXXXX@@XXXX###@XXXXX@@@@XXX##XXX@XX+$$+XX#XXXXX@XXXXX@@XXXX%&@@XXXXX@@@#XXX%&XXX@XX+$$+XX#XXXXX@XXXXX@@XXXX###@XXXXX@@@@XXX##XXX%XX+$",
"$$+XX@@@@@@@@@@@#####@@@@@@@@@@@#####@@@@@@XX+$$$$+XX##@@@@@@@@@@@#%%##@@@@@@@@@@@#%%##@@@@XX+$$$$+XX%&@@@@@@@@@####%%&@@@@@@@@@####%%&@@@@XX+$$$$+XX##@@@%%@@@@@@#####@@@%%@@@@@@#####@@@%XX+$$",
"$$$+X@@@@@@@@@####@@@@@@@@@@@@####@@@@@@@@@X+$$$$$$+X@@@@@@@@@@@###%#@@@@@@@@@@@###%#@@@@@@X+$$$$$$+X%@@@@@@@@####@@%%@@@@@@@@####@@%%@@@@@X+$$$$$$+X@@@@%%@@@@@#####@@@@%%@@@@@#####@@@@%%X+$$$",
"$$+XX@@@@@@@@##@@@@@@@@@@@@@@##@@@@@@@@@@@@XX+$$$$+XX@@@@@@@@@####@%@@@@@@@@@@####@%@@@@@@@XX+$$$$+XX@@@@@@@@##@@@@%%@@@@@@@@##@@@@%%@@@@@@XX+$$$$+XX@@%%%@@@@####@@@@@%%%@@@@####@@@@@%%%@XX+$$",
"$+XX@@@@@@@@##@@@@@@@@@@@@@@##@@@@@@@@@@@@@@XX+$$+XX@@@@@@@@@##@@@@%@@@@@@@@@##@@@@%@@@@@@@@XX+$$+XX%@@@@@@@##@@@@@%%@@@@@@@##@@@@@%%@@@@@@@XX+$$+XX@@%%@@@@@##@@@@@@@%%@@@@@##@@@@@@@%%@@@@XX+$",
"$+XX@@@@@@@@##@@@@@@@@@@@@@@##@@@@@@@@@@@@@@XX+$$+XX@@@@@@@@##@@@@%@@@@@@@@@##@@@@%@@@@@@@@@XX+$$+XX@@@@@@@@##@@@@%&@@@@@@@@##@@@@%&@@@@@@@@XX+$$+XX%%%@@@@@##@@@@@@%%%@@@@@##@@@@@@%%%@@@@@XX+$",
"$$+XX@@@@@@###@@@@@@@@@@@@@###@@@@@@@@@@@@@XX+$$$$+XX@@@@@@@##@@@@%@@@@@@@@@##@@@@%@@@@@@@@XX+$$$$+XX@@@@@@###@@@@%@@@@@@@@###@@@@%@@@@@@@@XX+$$$$+XX@@@@@@@##@@@@@%%@@@@@@@##@@@@@%%@@@@@@XX+$$",
"$$+XX@@@@@@###@@@@@@@@@@@@@###@@@@@@@@@@@@@XX+$$$$+XX@@@@@@###@@@@%@@@@@@@@###@@@@%@@@@@@@@XX+$$$$+XX@@@@@@###@@@@%@@@@@@@@###@@@@%@@@@@@@@XX+$$$$+XX@@@@@@###@@@@%@@@@@@@@###@@@@%@@@@@@@@XX+$$",
"$+XX@@@@@@####@@@@@@@@@@@@####@@@@@@@@@@@@##XX+$$+XX@@@@@@@###@@@%%@@@@@@@@###@@@%%@@@@@@@@#XX+$$+XX@@@@@@####@@@%%@@@@@@@####@@@%%@@@@@@@##XX+$$+XX@@@@@@@###@@@%%@@@@@@@@###@@@%%@@@@@@@@#XX+$",
"$$+XX@@@@@###@@@@@@@@@@@@@###@@@@@@@@@@@@@#XX+$$$$+XX@@@@@####@%%%@@@@@@@@####@%%%@@@@@@@@#XX+$$$$+XX@@@@@###@%%%%@@@@@@@@###@%%%%@@@@@@@@#XX+$$$$+XX@@@@@####@@%%@@@@@@@@####@@%%@@@@@@@@#XX+$$",
"$$$+X@@@@####@@@@@@@@@@@@####@@@@@@@@@@@@##X+$$$$$$+X@@@@@##%%%@@@@@@@@@@@##%%%@@@@@@@@@@@#X+$$$$$$+X@@@@###%%&@@@@@@@@@@###%%&@@@@@@@@@@##X+$$$$$$+X@@@@@###@@%@@@@@@@@@@###@@%@@@@@@@@@@#X+$$$",
"$$+XX@@@####@@@@@@@@@@@@####@@@@@@@@@@@@###XX+$$$$+XX@@@@%%%#@@@@@@@@@@@@%%%#@@@@@@@@@@@@%%XX+$$$$+XX@@@##%%%@@@@@@@@@@@##%%%@@@@@@@@@@@##%XX+$$$$+XX@@@@####@%%@@@@@@@@@####@%%@@@@@@@@@##XX+$$",
"$$+XX@@#####@@@@@@@@@@@#####@@@@@@@@@@@####XX+$$$$+XX@@%%%##@@@@@@@@@@@%%%##@@@@@@@@@@@%%%#XX+$$$$+XX@@##%%&@@@@@@@@@@@##%%&@@@@@@@@@@@##%%XX+$$$$+XX@@@####@@%@@@@@@@@@####@@%@@@@@@@@@###XX+$$",
"$+XX@@#####@@@@@@@@@@@#####@@@@@@@@@@@#####@XX+$$+XX@@%%####@@@@@@@@@@%%####@@@@@@@@@@%%####XX+$$+XX@@##%&&@@@@@@@@@@@##%&&@@@@@@@@@@@##%&&@XX+$$+XX@@@#####@%%@@@@@@@@#####@%%@@@@@@@@#####XX+$",
"$+XX@#####@@@@@@@@@@@#####@@@@@@@@@@@#####@@XX+$$+XX@%%####@@@@@@@@@@%%####@@@@@@@@@@%%####@XX+$$+XX@##%%&@@@@@@@@@@@##%%&@@@@@@@@@@@##%%&@@XX+$$+XX@@#####@@%@@@@@@@@#####@@%@@@@@@@@#####@XX+$",
"$+XX#####@@@@@@@@@@######@@@@@@@@@@######@@@XX+$$+XX@%####@@@@@@@@@@@%####@@@@@@@@@@@%####@@XX+$$+XX##%&&@@@@@@@@@@###%&&@@@@@@@@@@###%&&@@@XX+$$+XX@#####@@%%@@@@@@@#####@@%%@@@@@@@#####@@XX+$",
"$$+XX##@@@@@@@@@@@#####@@@@@@@@@@@#####@@@@XX+$$$$+XX%###@@@@@@@@@@#%%###@@@@@@@@@@#%%###@@XX+$$$$+XX%%&@@@@@@@@@@###%%&@@@@@@@@@@###%%&@@@XX+$$$$+XX####@@%%@@@@@@######@@%%@@@@@@######@@XX+$$",
"$$$+X@@@@@@@@@@@#####@@@@@@@@@@@#####@@@@@@X+$$$$$$+X##@@@@@@@@@@@#%%##@@@@@@@@@@@#%%##@@@@X+$$$$$$+X%&@@@@@@@@@####%%&@@@@@@@@@####%%&@@@@X+$$$$$$+X##@@@%%@@@@@@#####@@@%%@@@@@@#####@@@%X+$$$",
"$$+XX@@@@@@@@@####@@@@@@@@@@@@####@@@@@@@@@XX+$$$$+XX@@@@@@@@@@@###%#@@@@@@@@@@@###%#@@@@@@XX+$$$$+XX%@@@@@@@@####@@%%@@@@@@@@####@@%%@@@@@XX+$$$$+XX@@@@%%@@@@@#####@@@@%%@@@@@#####@@@@%%XX+$$",
"$$+XX@@@@@@@@##@@@@@@@@@@@@@@##@@@@@@@@@@@@XX+$$$$+XX@@@@@@@@@####@%@@@@@@@@@@####@%@@@@@@@XX+$$$$+XX@@@@@@@@##@@@@%%@@@@@@@@##@@@@%%@@@@@@XX+$$$$+XX@@%%%@@@@####@@@@@%%%@@@@####@@@@@%%%@XX+$$",
"$$+X@@@@@@@@##@@@@@@@@@@@@@@##@@@@@@@@@@@@@@X+$$$$+X@@@@@@@@@##@@@@%@@@@@@@@@##@@@@%@@@@@@@@X+$$$$+X%@@@@@@@##@@@@@%%@@@@@@@##@@@@@%%@@@@@@@X+$$$$+X@@%%@@@@@##@@@@@@@%%@@@@@##@@@@@@@%%@@@@X+$$",
"$+XX@@@@@@@@##@@@@@@@@@@@@@@##@@@@@@@@@@@@@@XX+$$+XX@@@@@@@@##@@@@%@@@@@@@@@##@@@@%@@@@@@@@@XX+$$+XX@@@@@@@@##@@@@%&@@@@@@@@##@@@@%&@@@@@@@@XX+$$+XX%%%@@@@@##@@@@@@%%%@@@@@##@@@@@@%%%@@@@@XX+$",
"$+XX@@@@@@@###@@@@@@@@@@@@@###@@@@@@@@@@@@@#XX+$$+XX@@@@@@@@##@@@@%@@@@@@@@@##@@@@%@@@@@@@@@XX+$$+XX@@@@@@@###@@@@%@@@@@@@@###@@@@%@@@@@@@@#XX+$$+XX%@@@@@@@##@@@@@%%@@@@@@@##@@@@@%%@@@@@@@XX+$",
"$+XX@@@@@@@###@@@@@@@@@@@@@###@@@@@@@@@@@@@#XX+$$+XX@@@@@@@###@@@@%@@@@@@@@###@@@@%@@@@@@@@#XX+$$+XX@@@@@@@###@@@@%@@@@@@@@###@@@@%@@@@@@@@#XX+$$+XX@@@@@@@###@@@@%@@@@@@@@###@@@@%@@@@@@@@#XX+$",
"$$+XX@@@@@####@@@@@@@@@@@@####@@@@@@@@@@@@#XX+$$$$+XX@@@@@@###@@@%%@@@@@@@@###@@@%%@@@@@@@@XX+$$$$+XX@@@@@####@@@%%@@@@@@@####@@@%%@@@@@@@#XX+$$$$+XX@@@@@@###@@@%%@@@@@@@@###@@@%%@@@@@@@@XX+$$",
"$$$+X@@@@@###@@@@@@@@@@@@@###@@@@@@@@@@@@@#X+$$$$$$+X@@@@@####@%%%@@@@@@@@####@%%%@@@@@@@@#X+$$$$$$+X@@@@@###@%%%%@@@@@@@@###@%%%%@@@@@@@@#X+$$$$$$+X@@@@@####@@%%@@@@@@@@####@@%%@@@@@@@@#X+$$$",
"$$+XX@@@@####@@@@@@@@@@@@####@@@@@@@@@@@@##XX+$$$$+XX@@@@@##%%%@@@@@@@@@@@##%%%@@@@@@@@@@@#XX+$$$$+XX@@@@###%%&@@@@@@@@@@###%%&@@@@@@@@@@##XX+$$$$+XX@@@@@###@@%@@@@@@@@@@###@@%@@@@@@@@@@#XX+$$",
"$$+XX@@@####@@@@@@@@@@@@####@@@@@@@@@@@@###XX+$$$$+XX@@@@%%%#@@@@@@@@@@@@%%%#@@@@@@@@@@@@%%XX+$$$$+XX@@@##%%%@@@@@@@@@@@##%%%@@@@@@@@@@@##%XX+$$$$+XX@@@@####@%%@@@@@@@@@####@%%@@@@@@@@@##XX+$$",
"$+XX@@@#####@@@@@@@@@@@#####@@@@@@@@@@@#####XX+$$+XX@@@%%%##@@@@@@@@@@@%%%##@@@@@@@@@@@%%%##XX+$$+XX@@@##%%&@@@@@@@@@@@##%%&@@@@@@@@@@@##%%&XX+$$+XX@@@@####@@%@@@@@@@@@####@@%@@@@@@@@@####XX+$",
"$+XX@@#####@@@@@@@@@@@#####@@@@@@@@@@@#####@XX+$$+XX@@%%####@@@@@@@@@@%%####@@@@@@@@@@%%####XX+$$+XX@@##%&&@@@@@@@@@@@##%&&@@@@@@@@@@@##%&&@XX+$$+XX@@@#####@%%@@@@@@@@#####@%%@@@@@@@@#####XX+$",
"$+XXX#####@@@@@@@@@@@#####@@@@@@@@@@@#####@XXX+$$+XXX%%####@@@@@@@@@@%%####@@@@@@@@@@%%####XXX+$$+XXX##%%&@@@@@@@@@@@##%%&@@@@@@@@@@@##%%&@XXX+$$+XXX@#####@@%@@@@@@@@#####@@%@@@@@@@@#####XXX+$",
"$+XXX####@@@@@@@@@@######@@@@@@@@@@######@@XXX+$$+XXX%####@@@@@@@@@@@%####@@@@@@@@@@@%####@XXX+$$+XXX#%&&@@@@@@@@@@###%&&@@@@@@@@@@###%&&@@XXX+$$+XXX#####@@%%@@@@@@@#####@@%%@@@@@@@#####@XXX+$",
"$$+X###@@@@@@@@@@@#####@@@@@@@@@@@#####@@@@@X+$$$$+X%%###@@@@@@@@@@#%%###@@@@@@@@@@#%%###@@@X+$$$$+X#%%&@@@@@@@@@@###%%&@@@@@@@@@@###%%&@@@@X+$$$$+X#####@@%%@@@@@@######@@%%@@@@@@######@@%X+$$",
"$$$+X@@@@@@@@@@@#####@@@@@@@@@@@#####@@@@@@X+$$$$$$+X##@@@@@@@@@@@#%%##@@@@@@@@@@@#%%##@@@@X+$$$$$$+X%&@@@@@@@@@####%%&@@@@@@@@@####%%&@@@@X+$$$$$$+X##@@@%%@@@@@@#####@@@%%@@@@@@#####@@@%X+$$$",
"$$+XXX@@@@@X@@###X@@@@X@@@@@@@####@@X@@@@@XXX+$$$$+XXX@@@@@X@@@@#X#%#@X@@@@@@@@@###%X@@@@@XXX+$$$$+XXX@@@@@X@@###X@@%%X@@@@@@@####@@X%@@@@XXX+$$$$+XXX@@@%%X@@@@#X###@X@@%%@@@@@####X@@@@%XXX+$$",
"$$$+X+X@@@X+XX#@X+@@XX+X@XXX@##XX@@X+X@@@X+X+$$$$$$+X+X@@@X+XX##X+@%XX+X@XXX@@#XX#@X+X@@@X+X+$$$$$$+X+X@@@X+XX#@X+@%XX+X@XXX@##XX@@X+X@@@X+X+$$$$$$+X+X%%%X+XX##X+@@XX+X%XXX@@#XX#@X+X@%%X+X+$$$",
"$$$$+$+XXX+$++XX++XX+++XX+++XXX++XX+$+XXX+$+$$$$$$$$+$+XXX+$++XX++XX+++XX+++XXX++XX+$+XXX+$+$$$$$$$$+$+XXX+$++XX++XX+++XX+++XXX++XX+$+XXX+$+$$$$$$$$+$+XXX+$++XX++XX+++XX+++XXX++XX+$+XXX+$+$$$$",
"$$$$$$$+++$$$$++$$++$$$++$$$+++$$++$$$+++$$$$$$$$$$$$$$+++$$$$++$$++$$$++$$$+++$$++$$$+++$$$$$$$$$$$$$$+++$$$$++$$++$$$++$$$+++$$++$$$+++$$$$$$$$$$$$$$+++$$$$++$$++$$$++$$$+++$$++$$$+++$$$$$$$",
"$$$$$$$$$$$$$$$$$$$$$$$$$$$$$$$$$$$$$$$$$$$$$$$$$$$$$$$$$$$$$$$$$$$$$$$$$$$$$$$$$$$$$$$$$$$$$$$$$$$$$$$$$$$$$$$$$$$$$$$$$$$$$$$$$$$$$$$$$$$$$$$$$$$$$$$$$$$$$$$$$$$$$$$$$$$$$$$$$$$$$$$$$$$$$$$$"
};
