/* XPM */
static char *tilesetfountain[] = {
/* columns rows colors chars-per-pixel */
"192 32 9 1",
"  c #222222",
". c #4F5453",
"X c #3579C4",
"o c #FF00FF",
"O c #559AD1",
"+ c #828282",
"@ c #ADADAD",
"# c #83B7DF",
"$ c #A9CDE9",
/* pixels */
"oooooooooooooooooooooooooooooooooooooooooooooooooooooooooooooooooooooooooooooooooooooooooooooooooooooooooooooooooooooooooooooooooooooooooooooooooooooooooooooooooooooooooooooooooooooooooooooooo",
"oooooooooooooooooooooooooooooooooooooooooooooooooooooooooooooooooooooooooooooooooooooooooooooooooooooooooooooooooooooooooooooooooooooooooooooooooooooooooooooooooooooooooooooooooooooooooooooooo",
"oooooooooooooooooooooooooooooooooooooooooooooooooooooooooooooooooooooooooooooooooooooooooooooooooooooooooooooooooooooooooooooooooooooooooooooooooooooooooooooooooooooooooooooo###ooooooooooooooo",
"oooooooooooooooooooooooooooooooooooooooooooooooooooooooooooooooooooooooooooooooooooooooooooooooooooooooooooooooooooooooooooooooooooooooooooooo###ooooooooooooooooooooooooooo##$$$##ooooooooooooo",
"oooooooooooooooooooooooooooooooooooooooooooooooooooooooooooooooooooooooooooooo###ooooooooooooooooooooooooooooo###ooooooooooooooooooooooooooo##$$$##oooooooooooooooooooooooo#$#$#$#$#oooooooooooo",
"oooooooooooooooooooooooooooooooooooooooooooooooooooooooooooooooooooooooooooo##$$$##ooooooooooooooooooooooooo##$$$##oooooooooooooooooooooooo#$#$#$#$#oooooooooooooooooooooooO#$#$#$#Ooooooooooooo",
"ooooooooooooooooooooooooooooooooooooooooooooooooooooooooooooooooooooooooooo#$#$#$#$#ooooooooooooooooooooooo#$#$#$#$#oooooooooooooooooooooooO#$#$#$#Ooooooooooooooooooooooo#oO#$$$#Oo#ooooooooooo",
"oooooooooooooooooooooooooooooooooooooooooooooo###ooooooooooooooooooooooooooO#$#$#$#OoooooooooooooooooooooooO#$#$#$#Ooooooooooooooooooooooo#oO#$$$#Oo#ooooooooooooooooooooooOoO###OoOoooooooooooo",
"ooooooooooooo.....oooooooooooooooooooooooooo##$$$##ooooooooooooooooooooooo#oO#$$$#Oo#ooooooooooooooooooooo#oO#$$$#Oo#ooooooooooooooooooooooOoO###OoOoooooooooooooooooooooo#o##$O$##o#ooooooooooo",
"ooooooooo....@@@++....ooooooooooooooooooo..#$#$#$#$#..ooooooooooooooooooo..O.O###O.O..ooooooooooooooooooo..O.O###O.O..ooooooooooooooooooo.#.##$O$##.#.ooooooooooooooooooo....#O$O#....oooooooooo",
"ooooooo..@@+       @@+..ooooooooooooooo..@@O#$#$#$#O@+..ooooooooooooooo..@#+##$O$##@#+..ooooooooooooooo..@#+##$O$##@#+..ooooooooooooooo..@@+ #O$O# @@+..ooooooooooooooo..@@+  #$#  @@+..oooooooo",
"ooooo..@    XXXXXXX    @  ooooooooooo..@    O#$$$#O    @  ooooooooooo..@    X#O$O#X    @  ooooooooooo..@    X#O$O#X    @  ooooooooooo..@    XX#$#XX    @  ooooooooooo..@    XXO#OXX    @  oooooo",
"ooo..@  XXXXXOOOOOXXXXX .@  ooooooo..@  XXXOXO###OXOXXX .@  ooooooo..@  XXXXXO#$#OXXXXX .@  ooooooo..@  XXXXXX#$#XXXXXX .@  ooooooo..@  XXXXXOO#OOXXXXX .@  ooooooo..@  XXXXXXO$OXXXXXX .@  oooo",
"oo..+ XXXOOOOOOOOOOOOOXXX.+  ooooo..+ XXXXOOO#$O$#OOOXXXX.+  ooooo..+ XXXOOOOOO#OOOOOOXXX.+  ooooo..+ XXXXOOOOO#OOOOOXXXX.+  ooooo..+ XXXOOOOOO$OOOOOOXXX.+  ooooo..+ XXXXOOOO#$#OOOOXXXX.+  ooo",
"oo.+ XXXXXOOOOOOOOOOXXXXXX.+ ooooo.+ XXXXXXOO#O$O#OXXXXXXX.+ ooooo.+ XXXXXOOOOO$OOOOXXXXXX.+ ooooo.+ XXXXXXOOOO$OOOXXXXXXX.+ ooooo.+ XXXXXOOOO#$#OOOXXXXXX.+ ooooo.+ XXXXXXOOOO#OOOXXXXXXX.+ ooo",
"o.@ XXOOOOOOOXXXXXOOOOOOOXX.@ ooo.@ XXXOOOOOOXO$OXOOOOOOXXX.@ ooo.@ XXOOOOOOOXO$OXOOOOOOOXX.@ ooo.@ XXXOOOOOOXO$OXOOOOOOXXX.@ ooo.@ XXOOOOOOOXO#OXOOOOOOOXX.@ ooo.@ XXXOOOOOOXO$OXOOOOOOXXX.@ oo",
"o.+ XXXXXXXXXX   XXXXXXXXXX.+ ooo.+ XXXXXXXXXXO#OXXXXXXXXXX.+ ooo.+ XXXXXXXXXXO#OXXXXXXXXXX.+ ooo.+ XXXXXXXXXXO#OXXXXXXXXXX.+ ooo.+ XXXXXXXXXXO#OXXXXXXXXXX.+ ooo.+ XXXXXXXXXXO#OXXXXXXXXXX.+ oo",
"o.            @@@           . ooo.            @O@           . ooo.            @O@           . ooo.            @O@           . ooo.            @O@           . ooo.            @O@           . oo",
".@.++@@+++@++@@ @@+++@++@@++.@ o.@.++@@+++@++@@ @@+++@++@@++.@ o.@.++@@+++@++@@ @@+++@++@@++.@ o.@.++@@+++@++@@ @@+++@++@@++.@ o.@.++@@+++@++@@ @@+++@++@@++.@ o.@.++@@+++@++@@ @@+++@++@@++.@ o",
".@            +++           .@ o.@            +++           .@ o.@            +++           .@ o.@            +++           .@ o.@            +++           .@ o.@            +++           .@ o",
" @ XXXXXXXXXXX   XXXXXXXXXX .@ o @ XXXXXXXXXXX   XXXXXXXXXX .@ o @ XXXXXXXXXXX   XXXXXXXXXX .@ o @ XXXXXXXXXXX   XXXXXXXXXX .@ o @ XXXXXXXXXXX   XXXXXXXXXX .@ o @ XXXXXXXXXXX   XXXXXXXXXX .@ o",
" + .XXOOOOOOOXXXXXOOOOOOXXX. + o + .XXXOOOOOOXXXXXOOOOOXXXX. + o + .XXOOOOOOOXXXXXOOOOOOXXX. + o + .XXXOOOOOOXXXXXOOOOOXXXX. + o + .XXOOOOOOOXXXXXOOOOOOXXX. + o + .XXXOOOOOOXXXXXOOOOOXXXX. + o",
"o .  XXXXXXOOOOOOOOOXXXXXX  . ooo .  XXXXXXXOOOOOOOXXXXXXX  . ooo .  XXXXXXOOOOOOOOOXXXXXX  . ooo .  XXXXXXXOOOOOOOXXXXXXX  . ooo .  XXXXXXOOOOOOOOOXXXXXX  . ooo .  XXXXXXXOOOOOOOXXXXXXX  . oo",
"o .@. XXOOOOOOOOOOOOOOOXX .@. ooo .@. XXXOOOOOOOOOOOOOXXX .@. ooo .@. XXOOOOOOOOOOOOOOOXX .@. ooo .@. XXXOOOOOOOOOOOOOXXX .@. ooo .@. XXOOOOOOOOOOOOOOOXX .@. ooo .@. XXXOOOOOOOOOOOOOXXX .@. oo",
"o .+..  XXXXXOOOOOXXXXX  ..+. ooo .+..  XXXXXXOOOXXXXXX  ..+. ooo .+..  XXXXXOOOOOXXXXX  ..+. ooo .+..  XXXXXXOOOXXXXXX  ..+. ooo .+..  XXXXXOOOOOXXXXX  ..+. ooo .+..  XXXXXXOOOXXXXXX  ..+. oo",
"oo +.@..    XXXXXXX    ..@.+ ooooo +.@..    XXXXXXX    ..@.+ ooooo +.@..    XXXXXXX    ..@.+ ooooo +.@..    XXXXXXX    ..@.+ ooooo +.@..    XXXXXXX    ..@.+ ooooo +.@..    XXXXXXX    ..@.+ ooo",
"ooo .+@.....       .....@+. ooooooo .+@.....       .....@+. ooooooo .+@.....       .....@+. ooooooo .+@.....       .....@+. ooooooo .+@.....       .....@+. ooooooo .+@.....       .....@+. oooo",
"oooo ++.@@@@.......@@@@.++ ooooooooo ++.@@@@.......@@@@.++ ooooooooo ++.@@@@.......@@@@.++ ooooooooo ++.@@@@.......@@@@.++ ooooooooo ++.@@@@.......@@@@.++ ooooooooo ++.@@@@.......@@@@.++ ooooo",
"ooooo  .+@+@.@@@@@.@+@+.  ooooooooooo  .+@+@.@@@@@.@+@+.  ooooooooooo  .+@+@.@@@@@.@+@+.  ooooooooooo  .+@+@.@@@@@.@+@+.  ooooooooooo  .+@+@.@@@@@.@+@+.  ooooooooooo  .+@+@.@@@@@.@+@+.  oooooo",
"ooooooo  +++.@+@+@.+++  ooooooooooooooo  +++.@+@+@.+++  ooooooooooooooo  +++.@+@+@.+++  ooooooooooooooo  +++.@+@+@.+++  ooooooooooooooo  +++.@+@+@.+++  ooooooooooooooo  +++.@+@+@.+++  oooooooo",
"ooooooooo    +++++    ooooooooooooooooooo    +++++    ooooooooooooooooooo    +++++    ooooooooooooooooooo    +++++    ooooooooooooooooooo    +++++    ooooooooooooooooooo    +++++    oooooooooo",
"ooooooooooooo     ooooooooooooooooooooooooooo     ooooooooooooooooooooooooooo     ooooooooooooooooooooooooooo     ooooooooooooooooooooooooooo     ooooooooooooooooooooooooooo     oooooooooooooo"
};
