/* XPM */
static char *titleselect[] = {
/* columns rows colors chars-per-pixel */
"130 35 2 1",
"  c #ECDB1C",
". c #FF00FF",
/* pixels */
"                                                                                                                                  ",
"                                                                                                                                  ",
"  ..............................................................................................................................  ",
"  ..............................................................................................................................  ",
"  ..............................................................................................................................  ",
"  ..............................................................................................................................  ",
"  ..............................................................................................................................  ",
"  ..............................................................................................................................  ",
"  ..............................................................................................................................  ",
"  ..............................................................................................................................  ",
"  ..............................................................................................................................  ",
"  ..............................................................................................................................  ",
"  ..............................................................................................................................  ",
"  ..............................................................................................................................  ",
"  ..............................................................................................................................  ",
"  ..............................................................................................................................  ",
"  ..............................................................................................................................  ",
"  ..............................................................................................................................  ",
"  ..............................................................................................................................  ",
"  ..............................................................................................................................  ",
"  ..............................................................................................................................  ",
"  ..............................................................................................................................  ",
"  ..............................................................................................................................  ",
"  ..............................................................................................................................  ",
"  ..............................................................................................................................  ",
"  ..............................................................................................................................  ",
"  ..............................................................................................................................  ",
"  ..............................................................................................................................  ",
"  ..............................................................................................................................  ",
"  ..............................................................................................................................  ",
"  ..............................................................................................................................  ",
"  ..............................................................................................................................  ",
"  ..............................................................................................................................  ",
"                                                                                                                                  ",
"                                                                                                                                  "
};
